<svg width="64" height="20" viewBox="0 0 64 20" fill="none" xmlns="http://www.w3.org/2000/svg">
<path d="M49.1548 16.5364C48.7374 16.0533 48.4196 15.4926 48.2197 14.8865L48.1655 14.7341L48.1113 14.5477L48.0774 14.4326L48.0232 14.2191L47.9961 14.0938C47.969 13.9752 47.9453 13.8499 47.925 13.7245C47.9209 13.6791 47.9141 13.6337 47.9046 13.589L47.8775 13.3688C47.883 13.3203 47.883 13.2716 47.8775 13.2231L47.8606 13.0368L57.3467 10.75C57.2911 10.2588 57.1451 9.78208 56.9164 9.34404C56.5648 8.57805 55.9925 7.93368 55.2733 7.49428C54.4765 6.99051 53.5814 6.66223 52.6477 6.53214L52.4885 6.50842C51.9254 6.44609 51.3576 6.44609 50.7945 6.50842C49.3011 6.67002 47.8982 7.3066 46.7934 8.3243C45.7025 9.31694 44.9728 10.6453 44.72 12.0983V12.1559C44.7031 12.2508 44.6895 12.3423 44.6794 12.4473C44.6692 12.5523 44.6794 12.5659 44.659 12.6336C44.6635 12.6855 44.6635 12.7376 44.659 12.7895C44.6658 12.8796 44.6658 12.9704 44.659 13.0605V13.4975C44.6811 14.2821 44.8464 15.0559 45.1469 15.7809C46.2395 18.315 48.736 19.9737 51.4958 19.9988C52.6402 20.0218 53.7735 19.7684 54.799 19.2602C55.8133 18.7592 56.6888 18.0155 57.3467 17.0954L57.1841 16.6855C56.5133 17.9661 51.8854 19.5584 49.1548 16.5364ZM53.4709 10.9092L47.8301 12.2643C47.8301 12.095 47.8301 11.9256 47.8538 11.7663V11.7155C47.8511 11.6613 47.8511 11.6071 47.8538 11.5529L47.8809 11.3327C47.9321 10.9804 48.0114 10.6324 48.1181 10.2926C48.3095 9.66215 48.6025 9.06725 48.9854 8.53096C49.3347 8.03701 49.7836 7.62133 50.3033 7.31134C50.8006 7.01389 51.3704 6.8594 51.9498 6.86414C52.7585 6.86414 53.35 7.09011 53.725 7.54171C53.8616 7.69925 53.9754 7.87473 54.0638 8.06344C54.4399 9.02219 54.4128 10.6179 53.4709 10.9092Z" fill="#5101A0"/>
<path d="M32.2261 16.6748C31.5485 17.969 26.9274 19.5579 24.1968 16.5393C23.7489 16.0176 23.4145 15.4084 23.2143 14.7505C22.9788 14.0045 22.8643 13.2257 22.8755 12.4434C22.8704 11.713 22.9778 10.9863 23.194 10.2887C23.3854 9.65827 23.6784 9.06336 24.0612 8.52707C24.4044 8.03685 24.8449 7.62286 25.3554 7.31084C25.8528 7.01373 26.4226 6.8589 27.0019 6.86365C27.8106 6.86365 28.4021 7.08961 28.7772 7.54121C29.1634 8.0294 29.363 8.63989 29.3396 9.26223C29.3477 9.58543 29.2996 9.90761 29.1973 10.2142L32.077 9.53664C31.0301 6.82638 27.5609 6.45033 26.9206 6.45033C21.4255 6.36225 18.4103 11.5321 20.1855 15.7432C21.2791 18.2789 23.7763 19.9397 26.5378 19.9678C27.6822 19.9908 28.8155 19.7374 29.841 19.2292C30.8553 18.7285 31.7307 17.9849 32.3887 17.0644L32.2261 16.6748Z" fill="#5101A0"/>
<path d="M44.7185 16.6751C44.041 17.9693 39.4199 19.5582 36.6892 16.5396C36.2461 16.0213 35.9151 15.4169 35.7169 14.7644C35.4815 14.0184 35.3669 13.2395 35.3781 12.4573C35.373 11.7269 35.4804 11.0002 35.6966 10.3026C35.887 9.67249 36.1787 9.07725 36.5605 8.54096C36.903 8.04667 37.3434 7.62794 37.8547 7.31117C38.352 7.01372 38.9219 6.85924 39.5012 6.86398C40.3075 6.86398 40.8994 7.08995 41.2764 7.54155C41.6664 8.02838 41.8697 8.6392 41.849 9.26257C41.8578 9.5861 41.8083 9.90862 41.7033 10.2145L44.5661 9.53698C43.526 6.82671 40.0568 6.45405 39.4233 6.45405C33.9281 6.36597 30.9129 11.5358 32.6881 15.7469C33.775 18.2891 36.2722 19.9576 39.037 19.9884C40.1838 20.0125 41.3195 19.7594 42.347 19.2499C43.3613 18.7488 44.2368 18.0052 44.8947 17.0851L44.7185 16.6751Z" fill="#5101A0"/>
<path d="M61.4994 17.2779V0L57.434 0.989247H57.4069V1.37207C57.5492 1.37207 58.779 1.71086 58.779 2.55781V17.217C58.779 19.0667 57.4712 19.3344 56.587 19.392V19.7002H63.6914V19.392C62.8106 19.3344 61.5299 19.0633 61.4994 17.2779Z" fill="#5101A0"/>
<path d="M12.3588 0L8.33402 0.985859H8.30352V1.28399C8.44582 1.28399 9.64174 1.70747 9.31989 2.46973C7.79195 5.85079 2.83548 17.1357 2.57461 17.6438C1.71748 19.3377 0.501226 19.3377 -0.000181198 19.392V19.7002H6.30129V19.3852C6.30129 19.3852 3.90944 19.4123 3.90944 18.1622C3.90944 17.4033 5.14602 14.4186 5.48141 13.6021L13.6903 11.5999C13.7106 11.6508 15.9195 17.0001 15.9195 18.1283C15.9195 19.3479 13.9579 19.3852 13.8868 19.3852V19.6935H22.1092V19.3852C20.9183 19.4055 19.825 18.7103 19.3379 17.6235C19.0906 17.1357 12.3588 0 12.3588 0ZM13.4057 10.9088L5.82698 12.7586C5.86764 12.6603 9.99069 2.99823 10.1059 2.75431C10.2787 3.15746 13.4023 10.9088 13.4023 10.9088H13.4057Z" fill="#5101A0"/>
</svg>
