<svg width="39" height="17" viewBox="0 0 39 17" fill="none" xmlns="http://www.w3.org/2000/svg">
<rect y="0.261719" width="38.236" height="16.6823" rx="8.34116" fill="white"/>
<path d="M28.4247 12.101C28.2004 11.844 28.0296 11.5456 27.9221 11.2231L27.893 11.142L27.8638 11.0429L27.8456 10.9816L27.8165 10.868L27.8019 10.8013C27.7874 10.7382 27.7746 10.6715 27.7637 10.6048C27.7615 10.5807 27.7579 10.5565 27.7528 10.5327L27.7382 10.4155C27.7411 10.3898 27.7411 10.3638 27.7382 10.338L27.7291 10.2389L32.8281 9.02206C32.7983 8.76067 32.7198 8.50704 32.5968 8.27395C32.4078 7.86637 32.1002 7.5235 31.7136 7.28969C31.2853 7.02163 30.8042 6.84695 30.3023 6.77773L30.2167 6.76511C29.914 6.73194 29.6088 6.73194 29.3061 6.76511C28.5034 6.8511 27.7493 7.18982 27.1554 7.73135C26.569 8.25953 26.1768 8.96636 26.0409 9.73953V9.77017C26.0318 9.82065 26.0245 9.86932 26.0191 9.9252C26.0136 9.98109 26.0191 9.9883 26.0081 10.0244C26.0105 10.0519 26.0105 10.0797 26.0081 10.1073C26.0118 10.1552 26.0118 10.2035 26.0081 10.2515V10.484C26.02 10.9015 26.1089 11.3133 26.2704 11.699C26.8577 13.0474 28.1996 13.93 29.6831 13.9434C30.2983 13.9556 30.9074 13.8208 31.4587 13.5504C32.0039 13.2838 32.4745 12.8881 32.8281 12.3985L32.7407 12.1804C32.3801 12.8618 29.8925 13.709 28.4247 12.101ZM30.7448 9.10679L27.7127 9.82786C27.7127 9.73773 27.7127 9.64759 27.7254 9.56287V9.53583C27.724 9.50698 27.724 9.47814 27.7254 9.4493L27.74 9.33212C27.7675 9.14464 27.8101 8.95951 27.8675 8.7787C27.9704 8.44322 28.1279 8.12667 28.3337 7.84131C28.5214 7.57848 28.7627 7.35729 29.0421 7.19235C29.3094 7.03407 29.6157 6.95187 29.9271 6.95439C30.3618 6.95439 30.6798 7.07463 30.8814 7.31493C30.9548 7.39875 31.016 7.49213 31.0635 7.59254C31.2656 8.1027 31.2511 8.95176 30.7448 9.10679Z" fill="black"/>
<path d="M19.3267 12.1745C18.9624 12.8631 16.4785 13.7085 15.0107 12.1024C14.7699 11.8247 14.5902 11.5006 14.4826 11.1505C14.356 10.7536 14.2944 10.3392 14.3004 9.92292C14.2977 9.53427 14.3554 9.14759 14.4716 8.77642C14.5745 8.44094 14.732 8.12439 14.9378 7.83903C15.1223 7.57818 15.359 7.3579 15.6335 7.19187C15.9008 7.03377 16.2071 6.95139 16.5185 6.95392C16.9532 6.95392 17.2712 7.07415 17.4728 7.31445C17.6804 7.57422 17.7876 7.89906 17.7751 8.23021C17.7795 8.40219 17.7536 8.57362 17.6986 8.73676L19.2465 8.37623C18.6838 6.93409 16.819 6.73399 16.4748 6.73399C13.521 6.68712 11.9003 9.438 12.8545 11.6787C13.4424 13.028 14.7847 13.9117 16.269 13.9267C16.8842 13.9389 17.4934 13.8041 18.0446 13.5337C18.5898 13.2673 19.0604 12.8716 19.4141 12.3818L19.3267 12.1745Z" fill="black"/>
<path d="M26.0381 12.1736C25.6739 12.8623 23.1899 13.7077 21.7221 12.1015C21.4839 11.8257 21.306 11.5041 21.1995 11.1569C21.0729 10.76 21.0114 10.3455 21.0174 9.92931C21.0146 9.54065 21.0724 9.15398 21.1886 8.78281C21.2909 8.44751 21.4477 8.13078 21.6529 7.84541C21.837 7.5824 22.0738 7.35959 22.3486 7.19104C22.6159 7.03277 22.9222 6.95057 23.2336 6.95309C23.6671 6.95309 23.9852 7.07333 24.1879 7.31363C24.3975 7.57267 24.5068 7.89769 24.4957 8.22939C24.5004 8.40154 24.4738 8.57316 24.4173 8.73594L25.9562 8.3754C25.3971 6.93326 23.5323 6.73497 23.1918 6.73497C20.2379 6.6881 18.6172 9.43898 19.5714 11.6797C20.1556 13.0324 21.498 13.9203 22.9842 13.9367C23.6006 13.9495 24.211 13.8148 24.7634 13.5437C25.3086 13.2771 25.7792 12.8814 26.1328 12.3918L26.0381 12.1736Z" fill="black"/>
<path d="M35.0561 12.4944V3.30078L32.8708 3.82716H32.8563V4.03087C32.9327 4.03087 33.5938 4.21113 33.5938 4.6618V12.462C33.5938 13.4462 32.8909 13.5887 32.4156 13.6193V13.7833H36.2344V13.6193C35.7609 13.5887 35.0725 13.4444 35.0561 12.4944Z" fill="black"/>
<path d="M8.64172 3.30078L6.47827 3.82536H6.46188V3.984C6.53836 3.984 7.18121 4.20933 7.0082 4.61493C6.18689 6.414 3.52264 12.4187 3.38242 12.6891C2.92168 13.5905 2.26791 13.5905 1.99839 13.6193V13.7833H5.38562V13.6157C5.38562 13.6157 4.09993 13.6301 4.09993 12.9649C4.09993 12.5611 4.76462 10.973 4.94491 10.5385L9.35741 9.47315C9.36834 9.50019 10.5557 12.3466 10.5557 12.9469C10.5557 13.5959 9.50128 13.6157 9.46303 13.6157V13.7797H13.8828V13.6157C13.2427 13.6265 12.655 13.2566 12.3932 12.6783C12.2602 12.4187 8.64172 3.30078 8.64172 3.30078ZM9.20444 9.1054L5.13066 10.0897C5.15252 10.0374 7.36878 4.89615 7.4307 4.76636C7.52357 4.98088 9.20262 9.1054 9.20262 9.1054H9.20444Z" fill="black"/>
</svg>
