<svg width="103" height="21" viewBox="0 0 103 21" fill="none" xmlns="http://www.w3.org/2000/svg">
<path d="M1.375 15.6025V5.64941H4.65625C5.65885 5.64941 6.44727 5.86133 7.02148 6.28516C7.5957 6.70898 7.88281 7.37663 7.88281 8.28809C7.88281 8.83496 7.74382 9.2793 7.46582 9.62109C7.18783 9.96289 6.84375 10.2067 6.43359 10.3525V10.3799C6.9349 10.5257 7.34505 10.7946 7.66406 11.1865C7.98307 11.5785 8.14258 12.0934 8.14258 12.7314C8.14258 13.6429 7.8418 14.3493 7.24023 14.8506C6.64323 15.3519 5.85026 15.6025 4.86133 15.6025H1.375ZM2.66016 14.5225H4.86133C5.54492 14.5225 6.04622 14.3607 6.36523 14.0371C6.68424 13.7135 6.84375 13.2783 6.84375 12.7314C6.84375 12.1846 6.68424 11.7516 6.36523 11.4326C6.04622 11.1136 5.54492 10.9541 4.86133 10.9541H2.66016V14.5225ZM2.66016 9.8877H4.65625C5.33984 9.8877 5.83203 9.74642 6.13281 9.46387C6.43359 9.18132 6.58398 8.78939 6.58398 8.28809C6.58398 7.78678 6.43359 7.40169 6.13281 7.13281C5.83203 6.86393 5.33984 6.72949 4.65625 6.72949H2.66016V9.8877ZM9.44141 13.4834C9.44141 12.7542 9.73079 12.1868 10.3096 11.7812C10.8883 11.3757 11.6243 11.1729 12.5176 11.1729H14.1445V10.6807C14.1445 10.2477 14.0329 9.89681 13.8096 9.62793C13.5863 9.35449 13.2012 9.21777 12.6543 9.21777C12.1074 9.21777 11.7155 9.33171 11.4785 9.55957C11.2461 9.78288 11.1299 10.0426 11.1299 10.3389V10.373H9.86523V10.3389C9.86523 9.76921 10.1182 9.27246 10.624 8.84863C11.1344 8.42025 11.8226 8.20605 12.6885 8.20605C13.5544 8.20605 14.2243 8.41341 14.6982 8.82812C15.1768 9.24284 15.416 9.86035 15.416 10.6807V13.9619C15.416 14.2581 15.4388 14.5384 15.4844 14.8027C15.5299 15.0625 15.5938 15.2926 15.6758 15.4932V15.6025H14.4453C14.3815 15.4886 14.3223 15.3405 14.2676 15.1582C14.2174 14.9759 14.1855 14.7936 14.1719 14.6113C14.0033 14.9076 13.7298 15.1696 13.3516 15.3975C12.9779 15.6253 12.4948 15.7393 11.9023 15.7393C11.2188 15.7393 10.6377 15.5456 10.1592 15.1582C9.68066 14.7708 9.44141 14.2126 9.44141 13.4834ZM10.7129 13.415C10.7129 13.8252 10.8314 14.1465 11.0684 14.3789C11.3053 14.6113 11.6745 14.7275 12.1758 14.7275C12.6771 14.7275 13.1305 14.5544 13.5361 14.208C13.9417 13.8617 14.1445 13.4948 14.1445 13.1074V12.0752H12.6543C12.0163 12.0752 11.5332 12.196 11.2051 12.4375C10.877 12.679 10.7129 13.0049 10.7129 13.415ZM16.9678 12.1162V11.8975C16.9678 10.8128 17.2617 9.92643 17.8496 9.23828C18.4421 8.55013 19.2555 8.20605 20.29 8.20605C21.2471 8.20605 21.974 8.46582 22.4707 8.98535C22.9674 9.50033 23.2158 10.0768 23.2158 10.7148V10.749H21.9854V10.7148C21.9854 10.3275 21.8509 9.98568 21.582 9.68945C21.3132 9.39323 20.8825 9.24512 20.29 9.24512C19.5973 9.24512 19.0869 9.5026 18.7588 10.0176C18.4307 10.528 18.2666 11.1546 18.2666 11.8975V12.1162C18.2666 12.859 18.4307 13.488 18.7588 14.0029C19.0869 14.5133 19.5973 14.7686 20.29 14.7686C20.8825 14.7686 21.3132 14.6204 21.582 14.3242C21.8509 14.028 21.9854 13.6862 21.9854 13.2988V13.2646H23.2158V13.2988C23.2158 13.9368 22.9674 14.5156 22.4707 15.0352C21.974 15.5501 21.2471 15.8076 20.29 15.8076C19.2555 15.8076 18.4421 15.4635 17.8496 14.7754C17.2617 14.0872 16.9678 13.2008 16.9678 12.1162ZM24.6992 15.6025V5.10254H25.9707V11.7197L29.0469 8.41113H30.4893L25.9707 13.21V15.6025H24.6992ZM29.334 15.6025L26.5312 11.8838L27.3242 11.0088L30.8242 15.6025H29.334ZM31.1592 12.1162V11.8975C31.1592 10.8128 31.4554 9.92643 32.0479 9.23828C32.6449 8.55013 33.4333 8.20605 34.4131 8.20605C35.3929 8.20605 36.1471 8.52734 36.6758 9.16992C37.2044 9.8125 37.4688 10.6807 37.4688 11.7744V12.2939H31.9385V11.2822H36.1904V11.1182C36.1904 10.5986 36.0423 10.1566 35.7461 9.79199C35.4499 9.42741 35.0238 9.24512 34.4678 9.24512C33.7933 9.24512 33.2897 9.5026 32.957 10.0176C32.6243 10.528 32.458 11.1546 32.458 11.8975V12.1162C32.458 12.859 32.6335 13.488 32.9844 14.0029C33.3353 14.5133 33.8799 14.7686 34.6182 14.7686C35.0739 14.7686 35.4658 14.6683 35.7939 14.4678C36.1221 14.2673 36.3887 14.0303 36.5938 13.7568L37.4141 14.4062C37.1862 14.748 36.833 15.0671 36.3545 15.3633C35.8805 15.6595 35.3018 15.8076 34.6182 15.8076C33.5016 15.8076 32.6449 15.4635 32.0479 14.7754C31.4554 14.0872 31.1592 13.2008 31.1592 12.1162ZM38.5967 12.1162V11.8975C38.5967 10.8493 38.8701 9.9834 39.417 9.2998C39.9639 8.61621 40.693 8.27441 41.6045 8.27441C42.1058 8.27441 42.5319 8.36556 42.8828 8.54785C43.2383 8.72559 43.5208 8.96257 43.7305 9.25879V5.10254H45.002V15.6025H43.8535L43.7988 14.666H43.7578C43.5755 14.9622 43.2952 15.2152 42.917 15.4248C42.5433 15.6344 42.1058 15.7393 41.6045 15.7393C40.693 15.7393 39.9639 15.3975 39.417 14.7139C38.8701 14.0303 38.5967 13.1644 38.5967 12.1162ZM39.8955 12.1162C39.8955 12.8454 40.055 13.4583 40.374 13.9551C40.693 14.4518 41.1943 14.7002 41.8779 14.7002C42.3337 14.7002 42.721 14.5749 43.04 14.3242C43.359 14.0736 43.5892 13.7887 43.7305 13.4697V10.5439C43.5892 10.2249 43.359 9.9401 43.04 9.68945C42.721 9.4388 42.3337 9.31348 41.8779 9.31348C41.1943 9.31348 40.693 9.56185 40.374 10.0586C40.055 10.5553 39.8955 11.1683 39.8955 11.8975V12.1162ZM50.4434 15.6025V5.10254H51.7148V9.25879C51.9245 8.96257 52.2048 8.72559 52.5557 8.54785C52.9111 8.36556 53.3395 8.27441 53.8408 8.27441C54.7523 8.27441 55.4814 8.61621 56.0283 9.2998C56.5752 9.9834 56.8486 10.8493 56.8486 11.8975V12.1162C56.8486 13.1644 56.5752 14.0303 56.0283 14.7139C55.4814 15.3975 54.7523 15.7393 53.8408 15.7393C53.3395 15.7393 52.8997 15.6344 52.5215 15.4248C52.1478 15.2152 51.8698 14.9622 51.6875 14.666H51.6465L51.5918 15.6025H50.4434ZM51.7148 13.4697C51.8561 13.7887 52.0863 14.0736 52.4053 14.3242C52.7243 14.5749 53.1117 14.7002 53.5674 14.7002C54.251 14.7002 54.7523 14.4518 55.0713 13.9551C55.3903 13.4583 55.5498 12.8454 55.5498 12.1162V11.8975C55.5498 11.1683 55.3903 10.5553 55.0713 10.0586C54.7523 9.56185 54.251 9.31348 53.5674 9.31348C53.1117 9.31348 52.7243 9.4388 52.4053 9.68945C52.0863 9.9401 51.8561 10.2249 51.7148 10.5439V13.4697ZM57.6895 18.4463V17.3662C57.8079 17.4027 57.9401 17.4323 58.0859 17.4551C58.2318 17.4779 58.373 17.4893 58.5098 17.4893C58.8288 17.4893 59.1068 17.3685 59.3438 17.127C59.5807 16.89 59.8314 16.3727 60.0957 15.5752V15.5684L57.416 8.41113H58.6465L60.3486 13.1416C60.4124 13.3239 60.4694 13.4948 60.5195 13.6543C60.5697 13.8138 60.613 13.9619 60.6494 14.0986H60.6904C60.7314 13.9619 60.777 13.8138 60.8271 13.6543C60.8818 13.4948 60.9388 13.3239 60.998 13.1416L62.584 8.41113H63.7871L60.8682 16.5596C60.6403 17.1976 60.3372 17.6943 59.959 18.0498C59.5853 18.4053 59.125 18.583 58.5781 18.583C58.3958 18.583 58.234 18.5716 58.0928 18.5488C57.9515 18.526 57.8171 18.4919 57.6895 18.4463Z" fill="#1F2A37"/>
<rect x="64" y="2.26172" width="38.236" height="16.6823" rx="8.34116" fill="white"/>
<path d="M92.4247 14.101C92.2004 13.844 92.0296 13.5456 91.9221 13.2231L91.893 13.142L91.8638 13.0429L91.8456 12.9816L91.8165 12.868L91.8019 12.8013C91.7874 12.7382 91.7746 12.6715 91.7637 12.6048C91.7615 12.5807 91.7579 12.5565 91.7528 12.5327L91.7382 12.4155C91.7411 12.3898 91.7411 12.3638 91.7382 12.338L91.7291 12.2389L96.8281 11.0221C96.7983 10.7607 96.7198 10.507 96.5968 10.274C96.4078 9.86637 96.1002 9.5235 95.7136 9.28969C95.2853 9.02163 94.8042 8.84695 94.3023 8.77773L94.2167 8.76511C93.914 8.73194 93.6088 8.73194 93.3061 8.76511C92.5034 8.8511 91.7493 9.18982 91.1554 9.73135C90.569 10.2595 90.1768 10.9664 90.0409 11.7395V11.7702C90.0318 11.8206 90.0245 11.8693 90.0191 11.9252C90.0136 11.9811 90.0191 11.9883 90.0081 12.0244C90.0105 12.0519 90.0105 12.0797 90.0081 12.1073C90.0118 12.1552 90.0118 12.2035 90.0081 12.2515V12.484C90.02 12.9015 90.1089 13.3133 90.2704 13.699C90.8577 15.0474 92.1996 15.93 93.6831 15.9434C94.2983 15.9556 94.9074 15.8208 95.4587 15.5504C96.0039 15.2838 96.4745 14.8881 96.8281 14.3985L96.7407 14.1804C96.3801 14.8618 93.8925 15.709 92.4247 14.101ZM94.7448 11.1068L91.7127 11.8279C91.7127 11.7377 91.7127 11.6476 91.7254 11.5629V11.5358C91.724 11.507 91.724 11.4781 91.7254 11.4493L91.74 11.3321C91.7675 11.1446 91.8101 10.9595 91.8675 10.7787C91.9704 10.4432 92.1279 10.1267 92.3337 9.84131C92.5214 9.57848 92.7627 9.35729 93.0421 9.19235C93.3094 9.03407 93.6157 8.95187 93.9271 8.95439C94.3618 8.95439 94.6798 9.07463 94.8814 9.31493C94.9548 9.39875 95.016 9.49213 95.0635 9.59254C95.2656 10.1027 95.2511 10.9518 94.7448 11.1068Z" fill="black"/>
<path d="M83.3267 14.1745C82.9624 14.8631 80.4785 15.7085 79.0107 14.1024C78.7699 13.8247 78.5902 13.5006 78.4826 13.1505C78.356 12.7536 78.2944 12.3392 78.3004 11.9229C78.2977 11.5343 78.3554 11.1476 78.4716 10.7764C78.5745 10.4409 78.732 10.1244 78.9378 9.83903C79.1223 9.57818 79.359 9.3579 79.6335 9.19187C79.9008 9.03377 80.2071 8.95139 80.5185 8.95392C80.9532 8.95392 81.2712 9.07415 81.4728 9.31445C81.6804 9.57422 81.7876 9.89906 81.7751 10.2302C81.7795 10.4022 81.7536 10.5736 81.6986 10.7368L83.2465 10.3762C82.6838 8.93409 80.819 8.73399 80.4748 8.73399C77.521 8.68712 75.9003 11.438 76.8545 13.6787C77.4424 15.028 78.7847 15.9117 80.269 15.9267C80.8842 15.9389 81.4934 15.8041 82.0446 15.5337C82.5898 15.2673 83.0604 14.8716 83.4141 14.3818L83.3267 14.1745Z" fill="black"/>
<path d="M90.0381 14.1736C89.6739 14.8623 87.1899 15.7077 85.7221 14.1015C85.4839 13.8257 85.306 13.5041 85.1995 13.1569C85.0729 12.76 85.0114 12.3455 85.0174 11.9293C85.0146 11.5407 85.0724 11.154 85.1886 10.7828C85.2909 10.4475 85.4477 10.1308 85.6529 9.84541C85.837 9.5824 86.0738 9.35959 86.3486 9.19104C86.6159 9.03277 86.9222 8.95057 87.2336 8.95309C87.6671 8.95309 87.9852 9.07333 88.1879 9.31363C88.3975 9.57267 88.5068 9.89769 88.4957 10.2294C88.5004 10.4015 88.4738 10.5732 88.4173 10.7359L89.9562 10.3754C89.3971 8.93326 87.5323 8.73497 87.1918 8.73497C84.2379 8.6881 82.6172 11.439 83.5714 13.6797C84.1556 15.0324 85.498 15.9203 86.9842 15.9367C87.6006 15.9495 88.211 15.8148 88.7634 15.5437C89.3086 15.2771 89.7792 14.8814 90.1328 14.3918L90.0381 14.1736Z" fill="black"/>
<path d="M99.0561 14.4944V5.30078L96.8708 5.82716H96.8563V6.03087C96.9327 6.03087 97.5938 6.21113 97.5938 6.6618V14.462C97.5938 15.4462 96.8909 15.5887 96.4156 15.6193V15.7833H100.234V15.6193C99.7609 15.5887 99.0725 15.4444 99.0561 14.4944Z" fill="black"/>
<path d="M72.6417 5.30078L70.4783 5.82536H70.4619V5.984C70.5384 5.984 71.1812 6.20933 71.0082 6.61493C70.1869 8.414 67.5226 14.4187 67.3824 14.6891C66.9217 15.5905 66.2679 15.5905 65.9984 15.6193V15.7833H69.3856V15.6157C69.3856 15.6157 68.0999 15.6301 68.0999 14.9649C68.0999 14.5611 68.7646 12.973 68.9449 12.5385L73.3574 11.4731C73.3683 11.5002 74.5557 14.3466 74.5557 14.9469C74.5557 15.5959 73.5013 15.6157 73.463 15.6157V15.7797H77.8828V15.6157C77.2427 15.6265 76.655 15.2566 76.3932 14.6783C76.2602 14.4187 72.6417 5.30078 72.6417 5.30078ZM73.2044 11.1054L69.1307 12.0897C69.1525 12.0374 71.3688 6.89615 71.4307 6.76636C71.5236 6.98088 73.2026 11.1054 73.2026 11.1054H73.2044Z" fill="black"/>
</svg>
