<svg width="146" height="33" viewBox="0 0 146 33" fill="none" xmlns="http://www.w3.org/2000/svg">
<path d="M28.8958 0H1.92639C0.862471 0 0 0.875043 0 1.95447V29.317C0 30.3965 0.862471 31.2715 1.92639 31.2715H28.8958C29.9598 31.2715 30.8222 30.3965 30.8222 29.317V1.95447C30.8222 0.875043 29.9598 0 28.8958 0Z" fill="white"/>
<path d="M17.6011 19.5471H4.13664C3.74139 19.5471 3.40368 19.8362 3.33711 20.2315L2.73662 23.7975C2.65198 24.3001 3.03359 24.759 3.53614 24.759H17.0112C17.4074 24.759 17.7455 24.4687 17.8111 24.0723L18.401 20.5062C18.484 20.0044 18.1027 19.5471 17.6011 19.5471Z" fill="#2F4DA9"/>
<path d="M6.17105 7.26884L5.57499 10.8354C5.49105 11.3377 5.87255 11.7959 6.37469 11.7959H22.9793C23.375 11.7959 23.713 11.5062 23.779 11.1104L24.3739 7.54424C24.4577 7.04204 24.0762 6.584 23.5741 6.58399L6.97078 6.58348C6.57513 6.58347 6.2372 6.87308 6.17105 7.26884Z" fill="#2F4DA9"/>
<path d="M9.62322 13.7158L9.01618 17.3522C8.93239 17.8545 9.31386 18.3126 9.81594 18.3126H26.9803C27.3757 18.3126 27.7134 18.0234 27.7799 17.628L28.3909 13.9915C28.4754 13.489 28.0938 13.0303 27.5914 13.0303H10.4229C10.0272 13.0303 9.68924 13.32 9.62322 13.7158Z" fill="#2F4DA9"/>
<path d="M136.536 2.81839C136.984 2.81839 137.347 3.18683 137.347 3.64132V25.1035C137.347 25.558 136.984 25.9264 136.536 25.9264H134.371C133.923 25.9264 133.56 25.558 133.56 25.1035V3.64132C133.56 3.18683 133.923 2.81839 134.371 2.81839H136.536ZM142.213 17.6312C142.213 16.7227 142.038 16.0314 141.688 15.5574C141.358 15.0834 140.794 14.8464 139.999 14.8464C139.474 14.8464 139.007 14.9649 138.6 15.2019C138.192 15.4192 137.882 15.7352 137.667 16.1499C137.454 16.5647 137.347 17.0584 137.347 17.6312H136.589C136.589 16.5449 136.765 15.5673 137.114 14.6983C137.483 13.8293 138.027 13.138 138.745 12.6245C139.464 12.111 140.348 11.8542 141.397 11.8542C142.446 11.8542 143.31 12.0517 143.99 12.4467C144.67 12.8417 145.174 13.4342 145.504 14.2243C145.835 14.9945 146 15.9425 146 17.0683V25.1035C146 25.558 145.637 25.9264 145.189 25.9264H143.024C142.575 25.9264 142.213 25.558 142.213 25.1035V17.6312Z" fill="white"/>
<path d="M123.273 13.1214C123.273 12.6669 123.636 12.2984 124.084 12.2984H130.736C131.183 12.2984 131.547 12.6669 131.547 13.1214V14.7047C131.547 15.1592 131.183 15.5276 130.736 15.5276H124.084C123.636 15.5276 123.273 15.1592 123.273 14.7047V13.1214ZM125.575 8.38126C125.575 7.92674 125.937 7.5583 126.386 7.5583H128.405C128.853 7.5583 129.216 7.92674 129.216 8.38126V25.1033C129.216 25.5578 128.853 25.9262 128.405 25.9262H126.386C125.937 25.9262 125.575 25.5578 125.575 25.1033V8.38126Z" fill="white"/>
<path d="M117.371 17.6314C117.371 16.7229 117.197 16.0316 116.847 15.5576C116.497 15.0836 115.934 14.8466 115.157 14.8466C114.633 14.8466 114.166 14.9651 113.758 15.2021C113.35 15.4193 113.04 15.7353 112.826 16.1501C112.612 16.5649 112.506 17.0586 112.506 17.6314V25.1036C112.506 25.558 112.143 25.9266 111.695 25.9266H109.529C109.081 25.9266 108.718 25.558 108.718 25.1036V13.1217C108.718 12.6672 109.081 12.2988 109.529 12.2988H111.695C112.143 12.2988 112.506 12.6672 112.506 13.1217V14.3726C112.914 13.6023 113.448 13.0196 114.108 12.6246C114.788 12.2099 115.604 12.0025 116.555 12.0025C118.148 12.0025 119.333 12.4666 120.11 13.3949C120.886 14.3034 121.275 15.5773 121.275 17.2166V25.1036C121.275 25.558 120.912 25.9266 120.464 25.9266H118.182C117.734 25.9266 117.371 25.558 117.371 25.1036V17.6314Z" fill="white"/>
<path d="M105.786 12.299C106.372 12.299 106.764 12.9096 106.528 13.4535L98.5021 31.9531C98.3724 32.2517 98.0812 32.4444 97.76 32.4444H95.6519C95.0671 32.4444 94.6745 31.8367 94.9081 31.2932L97.794 24.564L92.7587 13.4661C92.5113 12.9208 92.9039 12.299 93.4952 12.299H95.8766C96.2075 12.299 96.5052 12.5028 96.6293 12.8141L100.736 23.142L98.872 23.0827L102.893 12.818C103.015 12.5047 103.314 12.299 103.646 12.299H105.786Z" fill="white"/>
<path d="M78.1606 19.4914C78.5532 19.2095 79.0976 19.3362 79.3622 19.7437C79.6563 20.1967 79.9666 20.6085 80.2932 20.9789C80.8177 21.5517 81.3909 21.9961 82.0123 22.3121C82.6336 22.6281 83.3035 22.7861 84.0222 22.7861C84.8576 22.7861 85.5373 22.5688 86.0621 22.1343C86.5861 21.6998 86.8481 21.1073 86.8481 20.3568C86.8481 19.705 86.6834 19.1816 86.3533 18.7866C86.0427 18.3916 85.5666 18.046 84.9258 17.7497C84.3036 17.4337 83.5371 17.0979 82.6238 16.7424C82.1388 16.5647 81.5751 16.3277 80.9342 16.0314C80.3126 15.7154 79.7202 15.3204 79.157 14.8464C78.5938 14.3526 78.1275 13.7601 77.7585 13.0689C77.3895 12.3578 77.205 11.5086 77.205 10.5211C77.205 9.33603 77.4963 8.31888 78.079 7.4696C78.6811 6.60058 79.4872 5.93894 80.4972 5.48468C81.5264 5.01067 82.6725 4.77366 83.9354 4.77366C85.2364 4.77366 86.3533 5.00079 87.2853 5.45505C88.2375 5.88956 89.0235 6.45245 89.6456 7.14371C90.0844 7.60406 90.4559 8.07834 90.7585 8.5665C90.9872 8.93649 90.8363 9.41314 90.46 9.62513L88.575 10.6859C88.1848 10.9059 87.6965 10.7592 87.428 10.3961C87.2601 10.1681 87.0768 9.95298 86.8773 9.75079C86.5082 9.33603 86.0816 9.01015 85.5957 8.77314C85.1099 8.51639 84.5567 8.38801 83.9354 8.38801C83.1194 8.38801 82.507 8.58551 82.0999 8.98052C81.6919 9.35578 81.4875 9.80016 81.4875 10.3137C81.4875 10.8272 81.6529 11.2814 81.9831 11.6765C82.3132 12.0517 82.8185 12.4171 83.4982 12.7726C84.1779 13.1084 85.032 13.454 86.0621 13.8095C86.7224 14.0465 87.3534 14.3428 87.9553 14.6983C88.5774 15.0538 89.1306 15.4883 89.6164 16.0018C90.1209 16.4956 90.5095 17.0881 90.782 17.7793C91.0732 18.4509 91.2184 19.231 91.2184 20.1198C91.2184 21.127 91.0245 22.0257 90.636 22.8157C90.2475 23.6057 89.7129 24.2772 89.0332 24.8302C88.3535 25.3635 87.5862 25.7684 86.7321 26.0449C85.8967 26.3412 85.0134 26.4893 84.0806 26.4893C82.838 26.4893 81.6724 26.2523 80.5845 25.7783C79.5163 25.2845 78.584 24.6229 77.7877 23.7933C77.1617 23.1412 76.6438 22.4465 76.2337 21.709C76.0409 21.3621 76.1564 20.9299 76.4768 20.6999L78.1606 19.4914Z" fill="white"/>
<path d="M69.1489 17.6314C69.1489 16.7229 68.9741 16.0316 68.6245 15.5576C68.2749 15.0836 67.7116 14.8466 66.9347 14.8466C66.4103 14.8466 65.9441 14.9651 65.5362 15.2021C65.1283 15.4193 64.8176 15.7353 64.6039 16.1501C64.3903 16.5649 64.2835 17.0586 64.2835 17.6314V25.1036C64.2835 25.558 63.9203 25.9266 63.4724 25.9266H61.3071C60.8591 25.9266 60.496 25.558 60.496 25.1036V13.1217C60.496 12.6672 60.8591 12.2988 61.3071 12.2988H63.4724C63.9203 12.2988 64.2835 12.6672 64.2835 13.1217V14.3726C64.6913 13.6023 65.2255 13.0196 65.8858 12.6246C66.5656 12.2099 67.3814 12.0025 68.3331 12.0025C69.9258 12.0025 71.1106 12.4666 71.8876 13.3949C72.6644 14.3034 73.0529 15.5773 73.0529 17.2166V25.1036C73.0529 25.558 72.6898 25.9266 72.2418 25.9266H69.96C69.5121 25.9266 69.1489 25.558 69.1489 25.1036V17.6314Z" fill="white"/>
<path d="M52.4094 7.02554C52.4094 6.39353 52.6328 5.88002 53.0795 5.48501C53.5262 5.07025 54.0604 4.86287 54.6819 4.86287C55.3034 4.86287 55.8279 5.07025 56.2552 5.48501C56.7019 5.88002 56.9252 6.39353 56.9252 7.02554C56.9252 7.6378 56.7019 8.15131 56.2552 8.56609C55.8279 8.98085 55.3034 9.18823 54.6819 9.18823C54.0604 9.18823 53.5262 8.98085 53.0795 8.56609C52.6328 8.15131 52.4094 7.6378 52.4094 7.02554ZM52.8173 13.1219C52.8173 12.6674 53.1804 12.2989 53.6284 12.2989H55.6771C56.1251 12.2989 56.4882 12.6674 56.4882 13.1219V25.1038C56.4882 25.5583 56.1251 25.9267 55.6771 25.9267H53.6284C53.1804 25.9267 52.8173 25.5583 52.8173 25.1038V13.1219Z" fill="white"/>
<path d="M39.9915 8.89156V5.18835H48.2994C48.7474 5.18835 49.1105 5.55678 49.1105 6.01128V8.06862C49.1105 8.52313 48.7474 8.89156 48.2994 8.89156H39.9915ZM39.9915 17.0682V13.5428H48.0081C48.456 13.5428 48.8192 13.9112 48.8192 14.3657V16.2453C48.8192 16.6998 48.456 17.0682 48.0081 17.0682H39.9915ZM37.3111 6.01128C37.3111 5.55678 37.6742 5.18835 38.1222 5.18835H41.3316V25.1034C41.3316 25.5579 40.9685 25.9263 40.5205 25.9263H38.1222C37.6742 25.9263 37.3111 25.5579 37.3111 25.1034V6.01128Z" fill="white"/>
</svg>
