<svg width="108" height="24" viewBox="0 0 108 24" fill="none" xmlns="http://www.w3.org/2000/svg">
<path d="M21.375 0H1.425C0.637992 0 0 0.647292 0 1.44577V21.6866C0 22.4851 0.637992 23.1324 1.425 23.1324H21.375C22.162 23.1324 22.8 22.4851 22.8 21.6866V1.44577C22.8 0.647292 22.162 0 21.375 0Z" fill="url(#paint0_radial_306_82483)"/>
<path d="M13.02 14.4595H3.05998C2.7676 14.4595 2.51779 14.6734 2.46855 14.9657L2.02435 17.6036C1.96174 17.9754 2.24403 18.3149 2.61578 18.3149H12.5836C12.8767 18.3149 13.1268 18.1001 13.1754 17.8069L13.6117 15.169C13.6731 14.7978 13.3911 14.4595 13.02 14.4595Z" fill="white"/>
<path d="M4.56489 5.37695L4.12397 8.01524C4.06187 8.38682 4.34408 8.72577 4.71553 8.72577H16.9984C17.2911 8.72577 17.5411 8.51143 17.59 8.21862L18.03 5.58067C18.092 5.20918 17.8098 4.87036 17.4384 4.87035L5.15647 4.86997C4.8638 4.86996 4.61382 5.08419 4.56489 5.37695Z" fill="white"/>
<path d="M7.11855 10.146L6.66951 12.8359C6.60753 13.2074 6.88971 13.5463 7.26111 13.5463H19.9581C20.2505 13.5463 20.5003 13.3324 20.5495 13.0399L21.0015 10.3499C21.064 9.97819 20.7817 9.63888 20.4101 9.63888H7.71009C7.41741 9.63888 7.16739 9.85316 7.11855 10.146Z" fill="white"/>
<path d="M100.999 2.08483C101.33 2.08483 101.599 2.35738 101.599 2.69358V18.5697C101.599 18.9059 101.33 19.1784 100.999 19.1784H99.3978C99.066 19.1784 98.7978 18.9059 98.7978 18.5697V2.69358C98.7978 2.35738 99.066 2.08483 99.3978 2.08483H100.999ZM105.199 13.0423C105.199 12.3702 105.069 11.8589 104.81 11.5082C104.566 11.1576 104.149 10.9823 103.561 10.9823C103.172 10.9823 102.827 11.0699 102.526 11.2452C102.224 11.406 101.995 11.6397 101.836 11.9465C101.678 12.2533 101.599 12.6186 101.599 13.0423H101.039C101.039 12.2387 101.168 11.5155 101.427 10.8727C101.7 10.2299 102.102 9.71851 102.634 9.33865C103.165 8.9588 103.819 8.76887 104.595 8.76887C105.371 8.76887 106.01 8.91497 106.513 9.20716C107.016 9.49936 107.389 9.93766 107.633 10.5221C107.878 11.0918 108 11.7931 108 12.6259V18.5697C108 18.9059 107.731 19.1784 107.4 19.1784H105.799C105.467 19.1784 105.199 18.9059 105.199 18.5697V13.0423Z" fill="#223F9A"/>
<path d="M91.188 9.70621C91.188 9.37 91.4568 9.09747 91.788 9.09747H96.7086C97.0398 9.09747 97.3086 9.37 97.3086 9.70621V10.8774C97.3086 11.2137 97.0398 11.4862 96.7086 11.4862H91.788C91.4568 11.4862 91.188 11.2137 91.188 10.8774V9.70621ZM92.8908 6.19984C92.8908 5.86362 93.159 5.59107 93.4908 5.59107H94.9848C95.316 5.59107 95.5848 5.86362 95.5848 6.19984V18.5696C95.5848 18.9058 95.316 19.1783 94.9848 19.1783H93.4908C93.159 19.1783 92.8908 18.9058 92.8908 18.5696V6.19984Z" fill="#223F9A"/>
<path d="M86.8224 13.0424C86.8224 12.3703 86.6934 11.859 86.4348 11.5083C86.1762 11.1577 85.7592 10.9824 85.1844 10.9824C84.7968 10.9824 84.4518 11.07 84.15 11.2454C83.8482 11.4061 83.6184 11.6398 83.4606 11.9466C83.3022 12.2535 83.2236 12.6187 83.2236 13.0424V18.5698C83.2236 18.906 82.9548 19.1785 82.6236 19.1785H81.0216C80.6904 19.1785 80.4216 18.906 80.4216 18.5698V9.70646C80.4216 9.37025 80.6904 9.09771 81.0216 9.09771H82.6236C82.9548 9.09771 83.2236 9.37025 83.2236 9.70646V10.6318C83.5254 10.062 83.9202 9.63097 84.4086 9.33877C84.9114 9.03197 85.515 8.87856 86.2188 8.87856C87.3972 8.87856 88.2738 9.2219 88.8486 9.90856C89.4228 10.5806 89.7102 11.523 89.7102 12.7356V18.5698C89.7102 18.906 89.442 19.1785 89.1102 19.1785H87.4224C87.0912 19.1785 86.8224 18.906 86.8224 18.5698V13.0424Z" fill="#223F9A"/>
<path d="M78.2526 9.09789C78.6858 9.09789 78.9762 9.54958 78.8016 9.9519L72.8646 23.6365C72.7686 23.8574 72.5532 24 72.3156 24H70.7562C70.3236 24 70.0332 23.5504 70.206 23.1484L72.3408 18.1706L68.616 9.96122C68.433 9.55786 68.7234 9.09789 69.1608 9.09789H70.9224C71.1672 9.09789 71.3874 9.24868 71.4792 9.47891L74.517 17.1187L73.1382 17.0749L76.1124 9.48183C76.203 9.25002 76.4244 9.09789 76.6698 9.09789H78.2526Z" fill="#223F9A"/>
<path d="M57.8174 14.4183C58.1078 14.2098 58.5106 14.3035 58.7063 14.6049C58.9238 14.94 59.1534 15.2446 59.395 15.5186C59.7829 15.9423 60.207 16.2711 60.6666 16.5048C61.1262 16.7386 61.6218 16.8555 62.1534 16.8555C62.7714 16.8555 63.2742 16.6947 63.6624 16.3733C64.05 16.0519 64.2438 15.6136 64.2438 15.0584C64.2438 14.5763 64.122 14.1891 63.8778 13.8969C63.648 13.6047 63.2958 13.3491 62.8218 13.1299C62.3616 12.8962 61.7946 12.6478 61.119 12.3848C60.7602 12.2533 60.3432 12.078 59.8691 11.8589C59.4094 11.6251 58.9711 11.3329 58.5545 10.9823C58.1378 10.617 57.793 10.1787 57.52 9.66738C57.247 9.14142 57.1105 8.51319 57.1105 7.7827C57.1105 6.9061 57.326 6.15369 57.7571 5.52546C58.2025 4.88262 58.7987 4.39319 59.5459 4.05716C60.3072 3.70652 61.155 3.5312 62.0892 3.5312C63.0516 3.5312 63.8778 3.69922 64.5672 4.03524C65.2716 4.35666 65.853 4.77305 66.3132 5.28439C66.6378 5.62492 66.9126 5.97576 67.1364 6.33687C67.3056 6.61056 67.194 6.96314 66.9156 7.11996L65.5212 7.90463C65.2326 8.06741 64.8714 7.95887 64.6728 7.69029C64.5486 7.52161 64.413 7.36248 64.2654 7.21291C63.9924 6.9061 63.6768 6.66504 63.3174 6.48972C62.958 6.29979 62.5488 6.20483 62.0892 6.20483C61.4856 6.20483 61.0326 6.35093 60.7314 6.64313C60.4296 6.92071 60.2784 7.24944 60.2784 7.62929C60.2784 8.00915 60.4008 8.34518 60.645 8.63738C60.8892 8.91497 61.263 9.18525 61.7658 9.44823C62.2686 9.6966 62.9004 9.95227 63.6624 10.2152C64.1508 10.3906 64.6176 10.6097 65.0628 10.8727C65.523 11.1357 65.9322 11.4571 66.2916 11.8369C66.6648 12.2022 66.9522 12.6405 67.1538 13.1518C67.3692 13.6486 67.4766 14.2257 67.4766 14.8831C67.4766 15.6282 67.3332 16.293 67.0458 16.8774C66.7584 17.4618 66.363 17.9585 65.8602 18.3676C65.3574 18.762 64.7898 19.0615 64.158 19.2661C63.54 19.4852 62.8866 19.5948 62.1966 19.5948C61.2774 19.5948 60.4152 19.4195 59.6105 19.0689C58.8203 18.7036 58.1306 18.2142 57.5416 17.6006C57.0785 17.1182 56.6954 16.6043 56.3921 16.0587C56.2494 15.8021 56.3348 15.4824 56.5719 15.3122L57.8174 14.4183Z" fill="#223F9A"/>
<path d="M51.1513 13.0424C51.1513 12.3703 51.022 11.859 50.7633 11.5083C50.5047 11.1577 50.0881 10.9824 49.5133 10.9824C49.1254 10.9824 48.7806 11.07 48.4789 11.2454C48.1771 11.4061 47.9473 11.6398 47.7892 11.9466C47.6312 12.2535 47.5522 12.6187 47.5522 13.0424V18.5698C47.5522 18.906 47.2835 19.1785 46.9522 19.1785H45.3505C45.0191 19.1785 44.7505 18.906 44.7505 18.5698V9.70646C44.7505 9.37025 45.0191 9.09771 45.3505 9.09771H46.9522C47.2835 9.09771 47.5522 9.37025 47.5522 9.70646V10.6318C47.8538 10.062 48.249 9.63097 48.7375 9.33877C49.2403 9.03197 49.8438 8.87856 50.5478 8.87856C51.7259 8.87856 52.6024 9.2219 53.1771 9.90856C53.7518 10.5806 54.0391 11.523 54.0391 12.7356V18.5698C54.0391 18.906 53.7705 19.1785 53.4391 19.1785H51.7513C51.4199 19.1785 51.1513 18.906 51.1513 18.5698V13.0424Z" fill="#223F9A"/>
<path d="M38.7686 5.19698C38.7686 4.72946 38.9338 4.3496 39.2643 4.0574C39.5947 3.75059 39.9899 3.59719 40.4496 3.59719C40.9094 3.59719 41.2973 3.75059 41.6134 4.0574C41.9438 4.3496 42.1091 4.72946 42.1091 5.19698C42.1091 5.64988 41.9438 6.02974 41.6134 6.33656C41.2973 6.64337 40.9094 6.79677 40.4496 6.79677C39.9899 6.79677 39.5947 6.64337 39.2643 6.33656C38.9338 6.02974 38.7686 5.64988 38.7686 5.19698ZM39.0703 9.70658C39.0703 9.37037 39.3389 9.09783 39.6703 9.09783H41.1858C41.5172 9.09783 41.7858 9.37037 41.7858 9.70658V18.5699C41.7858 18.9061 41.5172 19.1787 41.1858 19.1787H39.6703C39.3389 19.1787 39.0703 18.9061 39.0703 18.5699V9.70658Z" fill="#223F9A"/>
<path d="M29.5828 6.57732V3.83796H35.7283C36.0597 3.83796 36.3283 4.1105 36.3283 4.4467V5.96857C36.3283 6.30478 36.0597 6.57732 35.7283 6.57732H29.5828ZM29.5828 12.6258V10.018H35.5129C35.8442 10.018 36.1129 10.2905 36.1129 10.6267V12.0171C36.1129 12.3533 35.8442 12.6258 35.5129 12.6258H29.5828ZM27.6 4.4467C27.6 4.1105 27.8686 3.83796 28.2 3.83796H30.5741V18.5696C30.5741 18.9058 30.3055 19.1784 29.9741 19.1784H28.2C27.8686 19.1784 27.6 18.9058 27.6 18.5696V4.4467Z" fill="#223F9A"/>
<defs>
<radialGradient id="paint0_radial_306_82483" cx="0" cy="0" r="1" gradientUnits="userSpaceOnUse" gradientTransform="translate(54 11.3105) rotate(13.6784) scale(55.5762 25.6447)">
<stop stop-color="#5879DA"/>
<stop offset="1" stop-color="#223F9A"/>
</radialGradient>
</defs>
</svg>
