<svg width="144" height="32" viewBox="0 0 144 32" fill="none" xmlns="http://www.w3.org/2000/svg">
<g clip-path="url(#clip0_1153_22079)">
<path d="M28.5 0H1.9C0.850656 0 0 0.850656 0 1.9V28.5C0 29.5494 0.850656 30.4 1.9 30.4H28.5C29.5494 30.4 30.4 29.5494 30.4 28.5V1.9C30.4 0.850656 29.5494 0 28.5 0Z" fill="url(#paint0_radial_1153_22079)"/>
<path d="M17.36 19.002H4.07997C3.69013 19.002 3.35705 19.283 3.2914 19.6672L2.69913 23.1339C2.61565 23.6225 2.99204 24.0686 3.4877 24.0686H16.7782C17.1689 24.0686 17.5024 23.7864 17.5671 23.4011L18.149 19.9344C18.2308 19.4465 17.8547 19.002 17.36 19.002Z" fill="white"/>
<path d="M6.08373 7.06665L5.49584 10.5338C5.41304 11.0222 5.78932 11.4676 6.28458 11.4676H22.6617C23.052 11.4676 23.3854 11.1859 23.4505 10.8011L24.0372 7.33438C24.1199 6.84617 23.7436 6.4009 23.2484 6.40089L6.8725 6.40039C6.48228 6.40038 6.14897 6.68192 6.08373 7.06665Z" fill="white"/>
<path d="M9.49296 13.3334L8.89424 16.8684C8.8116 17.3567 9.18784 17.802 9.68304 17.802H26.6123C27.0022 17.802 27.3354 17.5209 27.4009 17.1365L28.0036 13.6014C28.0869 13.1129 27.7106 12.667 27.215 12.667H10.2817C9.89144 12.667 9.55808 12.9486 9.49296 13.3334Z" fill="white"/>
<path d="M134.662 2.74023C135.103 2.74023 135.462 3.09841 135.462 3.54023V24.4042C135.462 24.8461 135.103 25.2042 134.662 25.2042H132.527C132.084 25.2042 131.727 24.8461 131.727 24.4042V3.54023C131.727 3.09841 132.084 2.74023 132.527 2.74023H134.662ZM140.261 17.1402C140.261 16.257 140.088 15.585 139.743 15.1242C139.418 14.6634 138.862 14.433 138.077 14.433C137.559 14.433 137.099 14.5482 136.698 14.7786C136.295 14.9898 135.989 15.297 135.778 15.7002C135.567 16.1034 135.462 16.5834 135.462 17.1402H134.715C134.715 16.0842 134.887 15.1338 135.232 14.289C135.596 13.4442 136.132 12.7722 136.841 12.273C137.55 11.7738 138.422 11.5242 139.456 11.5242C140.491 11.5242 141.343 11.7162 142.014 12.1002C142.684 12.4842 143.182 13.0602 143.507 13.8282C143.833 14.577 143.996 15.4986 143.996 16.593V24.4042C143.996 24.8461 143.638 25.2042 143.196 25.2042H141.061C140.619 25.2042 140.261 24.8461 140.261 24.4042V17.1402Z" fill="#223F9A"/>
<path d="M121.586 12.7557C121.586 12.3138 121.944 11.9557 122.386 11.9557H128.947C129.388 11.9557 129.747 12.3138 129.747 12.7557V14.2949C129.747 14.7367 129.388 15.0949 128.947 15.0949H122.386C121.944 15.0949 121.586 14.7367 121.586 14.2949V12.7557ZM123.856 8.14768C123.856 7.70583 124.214 7.34766 124.656 7.34766H126.648C127.09 7.34766 127.448 7.70583 127.448 8.14768V24.4037C127.448 24.8455 127.09 25.2037 126.648 25.2037H124.656C124.214 25.2037 123.856 24.8455 123.856 24.4037V8.14768Z" fill="#223F9A"/>
<path d="M115.761 17.14C115.761 16.2568 115.589 15.5848 115.244 15.124C114.899 14.6632 114.343 14.4328 113.577 14.4328C113.06 14.4328 112.6 14.548 112.198 14.7784C111.795 14.9896 111.489 15.2968 111.279 15.7C111.067 16.1032 110.963 16.5832 110.963 17.14V24.404C110.963 24.8457 110.604 25.204 110.163 25.204H108.027C107.585 25.204 107.227 24.8457 107.227 24.404V12.756C107.227 12.3141 107.585 11.956 108.027 11.956H110.163C110.604 11.956 110.963 12.3141 110.963 12.756V13.972C111.365 13.2232 111.891 12.6568 112.543 12.2728C113.213 11.8696 114.018 11.668 114.956 11.668C116.527 11.668 117.696 12.1192 118.463 13.0216C119.228 13.9048 119.611 15.1432 119.611 16.7368V24.404C119.611 24.8457 119.254 25.204 118.811 25.204H116.561C116.119 25.204 115.761 24.8457 115.761 24.404V17.14Z" fill="#223F9A"/>
<path d="M104.337 11.9561C104.915 11.9561 105.302 12.5497 105.069 13.0784L97.1531 31.0624C97.0251 31.3527 96.7379 31.5401 96.4211 31.5401H94.3419C93.7651 31.5401 93.3779 30.9493 93.6083 30.4209L96.4547 23.8793L91.4883 13.0906C91.2443 12.5605 91.6315 11.9561 92.2147 11.9561H94.5635C94.8899 11.9561 95.1835 12.1542 95.3059 12.4568L99.3563 22.4969L97.5179 22.4393L101.484 12.4606C101.604 12.156 101.9 11.9561 102.227 11.9561H104.337Z" fill="#223F9A"/>
<path d="M77.0869 18.9482C77.4741 18.6742 78.011 18.7973 78.272 19.1934C78.5621 19.6338 78.8681 20.0342 79.1902 20.3942C79.7075 20.951 80.2729 21.383 80.8857 21.6902C81.4985 21.9974 82.1593 22.151 82.8681 22.151C83.6921 22.151 84.3625 21.9398 84.8801 21.5174C85.3969 21.095 85.6553 20.519 85.6553 19.7894C85.6553 19.1558 85.4929 18.647 85.1673 18.263C84.8609 17.879 84.3913 17.543 83.7593 17.255C83.1457 16.9478 82.3897 16.6214 81.4889 16.2758C81.0105 16.103 80.4545 15.8726 79.8225 15.5846C79.2094 15.2774 78.6251 14.8934 78.0696 14.4326C77.5141 13.9526 77.0542 13.3766 76.6903 12.7046C76.3263 12.0134 76.1443 11.1878 76.1443 10.2278C76.1443 9.07584 76.4317 8.08704 77.0064 7.26143C77.6002 6.41663 78.3953 5.77343 79.3914 5.33183C80.4065 4.87103 81.5369 4.64062 82.7825 4.64062C84.0657 4.64062 85.1673 4.86143 86.0865 5.30303C87.0257 5.72543 87.8009 6.27263 88.4145 6.94463C88.8473 7.39215 89.2137 7.8532 89.5121 8.32776C89.7377 8.68744 89.5889 9.1508 89.2177 9.35688L87.3585 10.3881C86.9737 10.602 86.4921 10.4594 86.2273 10.1064C86.0617 9.88472 85.8809 9.6756 85.6841 9.47904C85.3201 9.07584 84.8993 8.75904 84.4201 8.52864C83.9409 8.27904 83.3953 8.15424 82.7825 8.15424C81.9777 8.15424 81.3737 8.34624 80.9721 8.73024C80.5697 9.09504 80.3681 9.52704 80.3681 10.0262C80.3681 10.5254 80.5313 10.967 80.8569 11.351C81.1825 11.7158 81.6809 12.071 82.3513 12.4166C83.0217 12.743 83.8641 13.079 84.8801 13.4246C85.5313 13.655 86.1537 13.943 86.7473 14.2886C87.3609 14.6342 87.9065 15.0566 88.3857 15.5558C88.8833 16.0358 89.2665 16.6118 89.5353 17.2838C89.8225 17.9366 89.9657 18.695 89.9657 19.559C89.9657 20.5382 89.7745 21.4118 89.3913 22.1798C89.0081 22.9478 88.4809 23.6006 87.8105 24.1382C87.1401 24.6566 86.3833 25.0502 85.5409 25.319C84.7169 25.607 83.8457 25.751 82.9257 25.751C81.7001 25.751 80.5505 25.5206 79.4776 25.0598C78.424 24.5798 77.5045 23.9366 76.719 23.1302C76.1016 22.4963 75.5908 21.821 75.1864 21.104C74.9961 20.7667 75.1101 20.3466 75.4261 20.123L77.0869 18.9482Z" fill="#223F9A"/>
<path d="M68.1985 17.14C68.1985 16.2568 68.0261 15.5848 67.6812 15.124C67.3364 14.6632 66.7809 14.4328 66.0145 14.4328C65.4973 14.4328 65.0376 14.548 64.6353 14.7784C64.2329 14.9896 63.9265 15.2968 63.7157 15.7C63.505 16.1032 63.3997 16.5832 63.3997 17.14V24.404C63.3997 24.8457 63.0415 25.204 62.5997 25.204H60.4641C60.0222 25.204 59.6641 24.8457 59.6641 24.404V12.756C59.6641 12.3141 60.0222 11.956 60.4641 11.956H62.5997C63.0415 11.956 63.3997 12.3141 63.3997 12.756V13.972C63.8019 13.2232 64.3288 12.6568 64.9801 12.2728C65.6505 11.8696 66.4552 11.668 67.3938 11.668C68.9647 11.668 70.1333 12.1192 70.8996 13.0216C71.6658 13.9048 72.0489 15.1432 72.0489 16.7368V24.404C72.0489 24.8457 71.6908 25.204 71.2489 25.204H68.9985C68.5566 25.204 68.1985 24.8457 68.1985 24.404V17.14Z" fill="#223F9A"/>
<path d="M51.6953 6.82994C51.6953 6.21554 51.9156 5.71634 52.3563 5.33234C52.7968 4.92914 53.3237 4.72754 53.9367 4.72754C54.5497 4.72754 55.067 4.92914 55.4884 5.33234C55.929 5.71634 56.1493 6.21554 56.1493 6.82994C56.1493 7.42514 55.929 7.92434 55.4884 8.32755C55.067 8.73075 54.5497 8.93236 53.9367 8.93236C53.3237 8.93236 52.7968 8.73075 52.3563 8.32755C51.9156 7.92434 51.6953 7.42514 51.6953 6.82994ZM52.0976 12.7564C52.0976 12.3145 52.4558 11.9564 52.8976 11.9564H54.9183C55.3601 11.9564 55.7183 12.3145 55.7183 12.7564V24.4044C55.7183 24.8462 55.3601 25.2044 54.9183 25.2044H52.8976C52.4558 25.2044 52.0976 24.8462 52.0976 24.4044V12.7564Z" fill="#223F9A"/>
<path d="M39.4406 8.64395V5.04395H47.6346C48.0765 5.04395 48.4346 5.40211 48.4346 5.84395V7.84395C48.4346 8.28579 48.0765 8.64395 47.6346 8.64395H39.4406ZM39.4406 16.5928V13.1656H47.3474C47.7891 13.1656 48.1474 13.5237 48.1474 13.9656V15.7928C48.1474 16.2346 47.7891 16.5928 47.3474 16.5928H39.4406ZM36.7969 5.84395C36.7969 5.40211 37.155 5.04395 37.5969 5.04395H40.7623V24.404C40.7623 24.8458 40.4042 25.204 39.9623 25.204H37.5969C37.155 25.204 36.7969 24.8458 36.7969 24.404V5.84395Z" fill="#223F9A"/>
</g>
<defs>
<radialGradient id="paint0_radial_1153_22079" cx="0" cy="0" r="1" gradientUnits="userSpaceOnUse" gradientTransform="translate(15.2 14.3266) rotate(47.6013) scale(22.5424)">
<stop stop-color="#5879DA"/>
<stop offset="1" stop-color="#223F9A"/>
</radialGradient>
<clipPath id="clip0_1153_22079">
<rect width="144" height="32" fill="white"/>
</clipPath>
</defs>
</svg>
