<svg width="2000" height="78" viewBox="0 0 2000 78" fill="none" xmlns="http://www.w3.org/2000/svg">
<g clip-path="url(#clip0_1181_29476)">
<mask id="path-1-inside-1_1181_29476" fill="white">
<path d="M0 0H2000V30H0V0Z"/>
</mask>
<path d="M0 0H2000V30H0V0Z" fill="#F3F4F6"/>
<path d="M0 0V0.870667H2000V0V-0.870667H0V0Z" fill="#F3F4F6" mask="url(#path-1-inside-1_1181_29476)"/>
<rect width="26.12" height="29.6027" transform="translate(0 0.198242)" fill="#F3F4F6"/>
<path d="M24.8145 28.4951H2.89453L24.8145 3.65137V28.4951Z" fill="#9DA4AE" stroke="#F3F4F6" stroke-width="2.612" stroke-linejoin="round"/>
<mask id="path-4-inside-2_1181_29476" fill="white">
<path d="M26.1172 0.198242H114.117V29.8009H26.1172V0.198242Z"/>
</mask>
<path d="M26.1172 0.198242H114.117V29.8009H26.1172V0.198242Z" fill="#F3F4F6"/>
<path d="M26.1172 29.8009H26.9879V0.198242H26.1172H25.2465V29.8009H26.1172Z" fill="url(#paint0_linear_1181_29476)" mask="url(#path-4-inside-2_1181_29476)"/>
<path d="M67.7569 19.1982H66.0694L69.1419 10.471H71.0936L74.1703 19.1982H72.4828L70.1518 12.2607H70.0836L67.7569 19.1982ZM67.8123 15.7764H72.4146V17.0463H67.8123V15.7764Z" fill="#7F7F7D"/>
<mask id="path-7-inside-3_1181_29476" fill="white">
<path d="M114.117 0.198242H202.117V29.8009H114.117V0.198242Z"/>
</mask>
<path d="M114.117 0.198242H202.117V29.8009H114.117V0.198242Z" fill="#F3F4F6"/>
<path d="M114.117 29.8009H114.988V0.198242H114.117H113.247V29.8009H114.117Z" fill="url(#paint1_linear_1181_29476)" mask="url(#path-7-inside-3_1181_29476)"/>
<path d="M155.035 19.1982V10.471H158.376C159.006 10.471 159.53 10.5704 159.948 10.7693C160.368 10.9653 160.682 11.2338 160.89 11.5747C161.1 11.9156 161.205 12.3019 161.205 12.7338C161.205 13.0889 161.137 13.3928 161.001 13.6457C160.864 13.8957 160.681 14.0988 160.451 14.2551C160.221 14.4113 159.964 14.5235 159.68 14.5917V14.6769C159.989 14.694 160.286 14.7892 160.57 14.9624C160.857 15.1329 161.091 15.3744 161.273 15.6869C161.455 15.9994 161.546 16.3772 161.546 16.8204C161.546 17.2721 161.437 17.6784 161.218 18.0392C160.999 18.3971 160.67 18.6798 160.229 18.8872C159.789 19.0945 159.235 19.1982 158.567 19.1982H155.035ZM156.616 17.8772H158.316C158.89 17.8772 159.303 17.7678 159.556 17.5491C159.812 17.3275 159.939 17.0434 159.939 16.6968C159.939 16.4383 159.876 16.2053 159.748 15.998C159.62 15.7877 159.438 15.623 159.202 15.5036C158.966 15.3815 158.685 15.3204 158.358 15.3204H156.616V17.8772ZM156.616 14.1826H158.18C158.452 14.1826 158.698 14.1329 158.917 14.0335C159.135 13.9312 159.307 13.7877 159.432 13.6031C159.56 13.4156 159.624 13.194 159.624 12.9383C159.624 12.6002 159.505 12.3218 159.266 12.1031C159.03 11.8843 158.68 11.7749 158.214 11.7749H156.616V14.1826Z" fill="#7F7F7D"/>
<mask id="path-10-inside-4_1181_29476" fill="white">
<path d="M202.117 0.198242H290.117V29.8009H202.117V0.198242Z"/>
</mask>
<path d="M202.117 0.198242H290.117V29.8009H202.117V0.198242Z" fill="#F3F4F6"/>
<path d="M202.117 29.8009H202.988V0.198242H202.117H201.247V29.8009H202.117Z" fill="url(#paint2_linear_1181_29476)" mask="url(#path-10-inside-4_1181_29476)"/>
<path d="M250.064 13.5264H248.198C248.164 13.2849 248.094 13.0704 247.989 12.8829C247.884 12.6926 247.749 12.5306 247.584 12.3971C247.419 12.2636 247.229 12.1613 247.013 12.0903C246.8 12.0193 246.569 11.9838 246.319 11.9838C245.867 11.9838 245.473 12.096 245.138 12.3204C244.803 12.542 244.543 12.8659 244.358 13.292C244.174 13.7153 244.081 14.2295 244.081 14.8346C244.081 15.4568 244.174 15.9795 244.358 16.4028C244.546 16.8261 244.807 17.1457 245.142 17.3616C245.478 17.5775 245.865 17.6855 246.306 17.6855C246.553 17.6855 246.782 17.6528 246.992 17.5874C247.205 17.5221 247.394 17.4269 247.559 17.3019C247.723 17.1741 247.86 17.0193 247.968 16.8374C248.078 16.6556 248.155 16.4482 248.198 16.2153L250.064 16.2238C250.016 16.6244 249.895 17.0107 249.702 17.3829C249.512 17.7522 249.255 18.0832 248.931 18.3758C248.61 18.6656 248.226 18.8957 247.78 19.0661C247.337 19.2338 246.836 19.3176 246.276 19.3176C245.498 19.3176 244.801 19.1414 244.188 18.7892C243.577 18.4369 243.094 17.9269 242.739 17.2593C242.387 16.5917 242.211 15.7835 242.211 14.8346C242.211 13.8829 242.39 13.0732 242.748 12.4056C243.105 11.738 243.591 11.2295 244.205 10.8801C244.819 10.5278 245.509 10.3517 246.276 10.3517C246.782 10.3517 247.25 10.4227 247.682 10.5647C248.117 10.7068 248.502 10.9142 248.837 11.1869C249.172 11.4568 249.445 11.7877 249.655 12.1798C249.868 12.5718 250.005 13.0207 250.064 13.5264Z" fill="#7F7F7D"/>
<mask id="path-13-inside-5_1181_29476" fill="white">
<path d="M290.117 0.198242H378.117V29.8009H290.117V0.198242Z"/>
</mask>
<path d="M290.117 0.198242H378.117V29.8009H290.117V0.198242Z" fill="#F3F4F6"/>
<path d="M290.117 29.8009H290.988V0.198242H290.117H289.247V29.8009H290.117Z" fill="url(#paint3_linear_1181_29476)" mask="url(#path-13-inside-5_1181_29476)"/>
<path d="M333.588 19.1982H330.63V10.471H333.647C334.514 10.471 335.258 10.6457 335.88 10.9951C336.505 11.3417 336.985 11.8403 337.321 12.4909C337.656 13.1414 337.824 13.9198 337.824 14.8261C337.824 15.7352 337.654 16.5164 337.316 17.1698C336.981 17.8232 336.497 18.3247 335.863 18.6741C335.233 19.0235 334.474 19.1982 333.588 19.1982ZM332.211 17.8303H333.511C334.119 17.8303 334.626 17.7195 335.032 17.498C335.439 17.2735 335.744 16.9397 335.949 16.4965C336.153 16.0505 336.255 15.4937 336.255 14.8261C336.255 14.1585 336.153 13.6045 335.949 13.1642C335.744 12.721 335.441 12.39 335.041 12.1713C334.643 11.9497 334.149 11.8389 333.558 11.8389H332.211V17.8303Z" fill="#7F7F7D"/>
<mask id="path-16-inside-6_1181_29476" fill="white">
<path d="M378.117 0.198242H466.117V29.8009H378.117V0.198242Z"/>
</mask>
<path d="M378.117 0.198242H466.117V29.8009H378.117V0.198242Z" fill="#F3F4F6"/>
<path d="M378.117 29.8009H378.988V0.198242H378.117H377.247V29.8009H378.117Z" fill="url(#paint4_linear_1181_29476)" mask="url(#path-16-inside-6_1181_29476)"/>
<path d="M419.333 19.1982V10.471H425.01V11.7963H420.914V14.1656H424.716V15.4909H420.914V17.873H425.044V19.1982H419.333Z" fill="#7F7F7D"/>
<mask id="path-19-inside-7_1181_29476" fill="white">
<path d="M466.117 0.198242H554.117V29.8009H466.117V0.198242Z"/>
</mask>
<path d="M466.117 0.198242H554.117V29.8009H466.117V0.198242Z" fill="#F3F4F6"/>
<path d="M466.117 29.8009H466.988V0.198242H466.117H465.247V29.8009H466.117Z" fill="url(#paint5_linear_1181_29476)" mask="url(#path-19-inside-7_1181_29476)"/>
<path d="M507.462 19.1982V10.471H513.053V11.7963H509.043V14.1656H512.67V15.4909H509.043V19.1982H507.462Z" fill="#7F7F7D"/>
<mask id="path-22-inside-8_1181_29476" fill="white">
<path d="M554.117 0H1434.12V30H554.117V0Z"/>
</mask>
<path d="M554.117 0H1434.12V30H554.117V0Z" fill="#F3F4F6"/>
<path d="M554.117 30H554.988V0H554.117H553.247V30H554.117Z" fill="url(#paint6_linear_1181_29476)" mask="url(#path-22-inside-8_1181_29476)"/>
<path d="M996.295 13.0597C996.224 12.8295 996.126 12.6236 996.001 12.4418C995.879 12.2571 995.731 12.0994 995.558 11.9688C995.388 11.8381 995.192 11.7401 994.97 11.6747C994.748 11.6065 994.507 11.5724 994.246 11.5724C993.777 11.5724 993.359 11.6903 992.993 11.9261C992.626 12.1619 992.338 12.5085 992.128 12.9659C991.92 13.4205 991.817 13.9744 991.817 14.6278C991.817 15.2869 991.92 15.8452 992.128 16.3026C992.335 16.7599 992.623 17.108 992.993 17.3466C993.362 17.5824 993.791 17.7003 994.28 17.7003C994.723 17.7003 995.106 17.6151 995.43 17.4446C995.757 17.2741 996.008 17.0327 996.184 16.7202C996.361 16.4048 996.449 16.0355 996.449 15.6122L996.807 15.6676H994.437V14.4318H997.979V15.4801C997.979 16.2273 997.819 16.8736 997.501 17.419C997.183 17.9645 996.746 18.3849 996.189 18.6804C995.632 18.973 994.993 19.1193 994.271 19.1193C993.467 19.1193 992.761 18.9389 992.153 18.5781C991.548 18.2145 991.075 17.6989 990.734 17.0312C990.396 16.3608 990.227 15.5653 990.227 14.6449C990.227 13.9403 990.327 13.3111 990.525 12.7571C990.727 12.2031 991.008 11.733 991.369 11.3466C991.73 10.9574 992.153 10.6619 992.639 10.4602C993.125 10.2557 993.653 10.1534 994.224 10.1534C994.707 10.1534 995.157 10.2244 995.575 10.3665C995.993 10.5057 996.363 10.7045 996.687 10.9631C997.014 11.2216 997.282 11.5284 997.493 11.8835C997.703 12.2386 997.841 12.6307 997.906 13.0597H996.295Z" fill="#7F7F7D"/>
<mask id="path-25-inside-9_1181_29476" fill="white">
<path d="M1434.12 0.198242H1522.12V29.8009H1434.12V0.198242Z"/>
</mask>
<path d="M1434.12 0.198242H1522.12V29.8009H1434.12V0.198242Z" fill="#F3F4F6"/>
<path d="M1434.12 29.8009H1434.99V0.198242H1434.12H1433.25V29.8009H1434.12Z" fill="url(#paint7_linear_1181_29476)" mask="url(#path-25-inside-9_1181_29476)"/>
<path d="M1474.51 19.1982V10.471H1476.09V14.1656H1480.14V10.471H1481.72V19.1982H1480.14V15.4909H1476.09V19.1982H1474.51Z" fill="#7F7F7D"/>
<mask id="path-28-inside-10_1181_29476" fill="white">
<path d="M1522.12 0.198242H1610.12V29.8009H1522.12V0.198242Z"/>
</mask>
<path d="M1522.12 0.198242H1610.12V29.8009H1522.12V0.198242Z" fill="#F3F4F6"/>
<path d="M1522.12 29.8009H1522.99V0.198242H1522.12H1521.25V29.8009H1522.12Z" fill="url(#paint8_linear_1181_29476)" mask="url(#path-28-inside-10_1181_29476)"/>
<path d="M1566.91 10.471V19.1982H1565.33V10.471H1566.91Z" fill="#7F7F7D"/>
<mask id="path-31-inside-11_1181_29476" fill="white">
<path d="M1610.12 0.198242H1698.12V29.8009H1610.12V0.198242Z"/>
</mask>
<path d="M1610.12 0.198242H1698.12V29.8009H1610.12V0.198242Z" fill="#F3F4F6"/>
<path d="M1610.12 29.8009H1610.99V0.198242H1610.12H1609.25V29.8009H1610.12Z" fill="url(#paint9_linear_1181_29476)" mask="url(#path-31-inside-11_1181_29476)"/>
<path d="M1655.06 10.471H1656.63V16.6073C1656.62 17.1698 1656.5 17.6542 1656.27 18.0605C1656.03 18.4639 1655.7 18.7749 1655.28 18.9937C1654.86 19.2096 1654.37 19.3176 1653.81 19.3176C1653.3 19.3176 1652.84 19.2267 1652.43 19.0448C1652.02 18.8602 1651.7 18.5874 1651.46 18.2267C1651.22 17.8659 1651.1 17.417 1651.1 16.8801H1652.68C1652.68 17.1159 1652.73 17.319 1652.83 17.4894C1652.93 17.6599 1653.07 17.7906 1653.25 17.8815C1653.43 17.9724 1653.64 18.0178 1653.87 18.0178C1654.12 18.0178 1654.34 17.9653 1654.51 17.8602C1654.69 17.7522 1654.82 17.5931 1654.91 17.3829C1655.01 17.1727 1655.06 16.9142 1655.06 16.6073V10.471Z" fill="#7F7F7D"/>
<mask id="path-34-inside-12_1181_29476" fill="white">
<path d="M1698.12 0.198242H1786.12V29.8009H1698.12V0.198242Z"/>
</mask>
<path d="M1698.12 0.198242H1786.12V29.8009H1698.12V0.198242Z" fill="#F3F4F6"/>
<path d="M1698.12 29.8009H1698.99V0.198242H1698.12H1697.25V29.8009H1698.12Z" fill="url(#paint10_linear_1181_29476)" mask="url(#path-34-inside-12_1181_29476)"/>
<path d="M1738.92 19.1982V10.471H1740.5V14.4809H1740.6L1744.01 10.471H1745.94L1742.57 14.3872L1745.97 19.1982H1744.07L1741.47 15.4568L1740.5 16.5988V19.1982H1738.92Z" fill="#7F7F7D"/>
<mask id="path-37-inside-13_1181_29476" fill="white">
<path d="M1786.12 0.198242H1874.12V29.8009H1786.12V0.198242Z"/>
</mask>
<path d="M1786.12 0.198242H1874.12V29.8009H1786.12V0.198242Z" fill="#F3F4F6"/>
<path d="M1786.12 29.8009H1786.99V0.198242H1786.12H1785.25V29.8009H1786.12Z" fill="url(#paint11_linear_1181_29476)" mask="url(#path-37-inside-13_1181_29476)"/>
<path d="M1827.58 19.1982V10.471H1829.16V17.873H1833V19.1982H1827.58Z" fill="#7F7F7D"/>
<mask id="path-40-inside-14_1181_29476" fill="white">
<path d="M1874.12 0.198242H1962.12V29.8009H1874.12V0.198242Z"/>
</mask>
<path d="M1874.12 0.198242H1962.12V29.8009H1874.12V0.198242Z" fill="#F3F4F6"/>
<path d="M1874.12 29.8009H1874.99V0.198242H1874.12H1873.25V29.8009H1874.12Z" fill="url(#paint12_linear_1181_29476)" mask="url(#path-40-inside-14_1181_29476)"/>
<path d="M1913.54 10.471H1915.48L1918.07 16.7948H1918.17L1920.76 10.471H1922.69V19.1982H1921.18V13.2025H1921.1L1918.68 19.1727H1917.55L1915.14 13.1897H1915.06V19.1982H1913.54V10.471Z" fill="#7F7F7D"/>
<mask id="path-43-inside-15_1181_29476" fill="white">
<path d="M1962.12 0.198242H2050.12V29.8009H1962.12V0.198242Z"/>
</mask>
<path d="M1962.12 0.198242H2050.12V29.8009H1962.12V0.198242Z" fill="#F3F4F6"/>
<path d="M1962.12 29.8009H1962.99V0.198242H1962.12H1961.25V29.8009H1962.12Z" fill="url(#paint13_linear_1181_29476)" mask="url(#path-43-inside-15_1181_29476)"/>
<mask id="path-45-inside-16_1181_29476" fill="white">
<path d="M0 30H26.12V78H0V30Z"/>
</mask>
<path d="M26.12 30H25.12V78H26.12H27.12V30H26.12Z" fill="#9DA4AE" mask="url(#path-45-inside-16_1181_29476)"/>
<mask id="path-47-inside-17_1181_29476" fill="white">
<path d="M0 30H26.12V54H0V30Z"/>
</mask>
<path d="M0 30H26.12V54H0V30Z" fill="#F3F4F6"/>
<path d="M0 30V30.8707H26.12V30V29.1293H0V30Z" fill="url(#paint14_linear_1181_29476)" mask="url(#path-47-inside-17_1181_29476)"/>
<path d="M14.2621 38.7273V46H12.9446V40.0092H12.902L11.201 41.0959V39.8885L13.0085 38.7273H14.2621Z" fill="#9DA4AE"/>
<mask id="path-50-inside-18_1181_29476" fill="white">
<path d="M0 54H26.12V78H0V54Z"/>
</mask>
<path d="M0 54H26.12V78H0V54Z" fill="#F3F4F6"/>
<path d="M0 54V54.8707H26.12V54V53.1293H0V54Z" fill="url(#paint15_linear_1181_29476)" mask="url(#path-50-inside-18_1181_29476)"/>
<path d="M10.6008 70V69.0483L13.1257 66.5732C13.3672 66.3293 13.5684 66.1127 13.7294 65.9233C13.8904 65.7339 14.0111 65.5504 14.0916 65.3729C14.1721 65.1953 14.2123 65.0059 14.2123 64.8047C14.2123 64.575 14.1603 64.3786 14.0561 64.2152C13.9519 64.0495 13.8087 63.9216 13.6264 63.8317C13.4441 63.7417 13.237 63.6967 13.005 63.6967C12.7658 63.6967 12.5563 63.7464 12.3764 63.8459C12.1965 63.9429 12.0568 64.0814 11.9574 64.2614C11.8603 64.4413 11.8118 64.6555 11.8118 64.9041H10.5582C10.5582 64.4425 10.6636 64.0412 10.8743 63.7003C11.085 63.3594 11.375 63.0954 11.7443 62.9084C12.116 62.7214 12.5421 62.6278 13.0227 62.6278C13.5104 62.6278 13.9389 62.719 14.3082 62.9013C14.6775 63.0836 14.964 63.3333 15.1676 63.6506C15.3736 63.9678 15.4765 64.33 15.4765 64.7372C15.4765 65.0095 15.4245 65.277 15.3203 65.5398C15.2161 65.8026 15.0327 66.0937 14.7699 66.4134C14.5095 66.733 14.1437 67.12 13.6726 67.5746L12.419 68.8494V68.8991H15.5866V70H10.6008Z" fill="#9DA4AE"/>
<g clip-path="url(#clip1_1181_29476)">
<g clip-path="url(#clip2_1181_29476)">
<mask id="path-53-inside-19_1181_29476" fill="white">
<path d="M26.1172 30H114.117V54H26.1172V30Z"/>
</mask>
<path d="M26.1172 30H114.117V54H26.1172V30Z" fill="white"/>
<path d="M26.1172 30V29.1293H25.2465V30H26.1172ZM26.1172 30V30.8707H114.117V30V29.1293H26.1172V30ZM26.1172 54H26.9879V30H26.1172H25.2465V54H26.1172Z" fill="#F3F4F6" mask="url(#path-53-inside-19_1181_29476)"/>
<mask id="path-55-inside-20_1181_29476" fill="white">
<path d="M114.117 30H202.117V54H114.117V30Z"/>
</mask>
<path d="M114.117 30H202.117V54H114.117V30Z" fill="white"/>
<path d="M114.117 30V29.1293H113.247V30H114.117ZM114.117 30V30.8707H202.117V30V29.1293H114.117V30ZM114.117 54H114.988V30H114.117H113.247V54H114.117Z" fill="#F3F4F6" mask="url(#path-55-inside-20_1181_29476)"/>
<mask id="path-57-inside-21_1181_29476" fill="white">
<path d="M202.117 30H290.117V54H202.117V30Z"/>
</mask>
<path d="M202.117 30H290.117V54H202.117V30Z" fill="white"/>
<path d="M202.117 30V29.1293H201.247V30H202.117ZM202.117 30V30.8707H290.117V30V29.1293H202.117V30ZM202.117 54H202.988V30H202.117H201.247V54H202.117Z" fill="#F3F4F6" mask="url(#path-57-inside-21_1181_29476)"/>
<mask id="path-59-inside-22_1181_29476" fill="white">
<path d="M290.117 30H378.117V54H290.117V30Z"/>
</mask>
<path d="M290.117 30H378.117V54H290.117V30Z" fill="white"/>
<path d="M290.117 30V29.1293H289.247V30H290.117ZM290.117 30V30.8707H378.117V30V29.1293H290.117V30ZM290.117 54H290.988V30H290.117H289.247V54H290.117Z" fill="#F3F4F6" mask="url(#path-59-inside-22_1181_29476)"/>
<mask id="path-61-inside-23_1181_29476" fill="white">
<path d="M378.117 30H466.117V54H378.117V30Z"/>
</mask>
<path d="M378.117 30H466.117V54H378.117V30Z" fill="white"/>
<path d="M378.117 30V29.1293H377.247V30H378.117ZM378.117 30V30.8707H466.117V30V29.1293H378.117V30ZM378.117 54H378.988V30H378.117H377.247V54H378.117Z" fill="#F3F4F6" mask="url(#path-61-inside-23_1181_29476)"/>
<mask id="path-63-inside-24_1181_29476" fill="white">
<path d="M466.117 30H554.117V54H466.117V30Z"/>
</mask>
<path d="M466.117 30H554.117V54H466.117V30Z" fill="white"/>
<path d="M466.117 30V29.1293H465.247V30H466.117ZM466.117 30V30.8707H554.117V30V29.1293H466.117V30ZM466.117 54H466.988V30H466.117H465.247V54H466.117Z" fill="#F3F4F6" mask="url(#path-63-inside-24_1181_29476)"/>
<mask id="path-65-inside-25_1181_29476" fill="white">
<path d="M554.117 30H1434.12V54H554.117V30Z"/>
</mask>
<path d="M554.117 30H1434.12V54H554.117V30Z" fill="white"/>
<path d="M554.117 30V29.13H553.247V30H554.117ZM554.117 30V30.87H1434.12V30V29.13H554.117V30ZM554.117 54H554.987V30H554.117H553.247V54H554.117Z" fill="#F3F4F6" mask="url(#path-65-inside-25_1181_29476)"/>
<mask id="path-67-inside-26_1181_29476" fill="white">
<path d="M1434.12 30H1522.12V54H1434.12V30Z"/>
</mask>
<path d="M1434.12 30H1522.12V54H1434.12V30Z" fill="white"/>
<path d="M1434.12 30V29.1293H1433.25V30H1434.12ZM1434.12 30V30.8707H1522.12V30V29.1293H1434.12V30ZM1434.12 54H1434.99V30H1434.12H1433.25V54H1434.12Z" fill="#F3F4F6" mask="url(#path-67-inside-26_1181_29476)"/>
<mask id="path-69-inside-27_1181_29476" fill="white">
<path d="M1522.12 30H1610.12V54H1522.12V30Z"/>
</mask>
<path d="M1522.12 30H1610.12V54H1522.12V30Z" fill="white"/>
<path d="M1522.12 30V29.1293H1521.25V30H1522.12ZM1522.12 30V30.8707H1610.12V30V29.1293H1522.12V30ZM1522.12 54H1522.99V30H1522.12H1521.25V54H1522.12Z" fill="#F3F4F6" mask="url(#path-69-inside-27_1181_29476)"/>
<mask id="path-71-inside-28_1181_29476" fill="white">
<path d="M1610.12 30H1698.12V54H1610.12V30Z"/>
</mask>
<path d="M1610.12 30H1698.12V54H1610.12V30Z" fill="white"/>
<path d="M1610.12 30V29.1293H1609.25V30H1610.12ZM1610.12 30V30.8707H1698.12V30V29.1293H1610.12V30ZM1610.12 54H1610.99V30H1610.12H1609.25V54H1610.12Z" fill="#F3F4F6" mask="url(#path-71-inside-28_1181_29476)"/>
<mask id="path-73-inside-29_1181_29476" fill="white">
<path d="M1698.12 30H1786.12V54H1698.12V30Z"/>
</mask>
<path d="M1698.12 30H1786.12V54H1698.12V30Z" fill="white"/>
<path d="M1698.12 30V29.1293H1697.25V30H1698.12ZM1698.12 30V30.8707H1786.12V30V29.1293H1698.12V30ZM1698.12 54H1698.99V30H1698.12H1697.25V54H1698.12Z" fill="#F3F4F6" mask="url(#path-73-inside-29_1181_29476)"/>
<mask id="path-75-inside-30_1181_29476" fill="white">
<path d="M1786.12 30H1874.12V54H1786.12V30Z"/>
</mask>
<path d="M1786.12 30H1874.12V54H1786.12V30Z" fill="white"/>
<path d="M1786.12 30V29.1293H1785.25V30H1786.12ZM1786.12 30V30.8707H1874.12V30V29.1293H1786.12V30ZM1786.12 54H1786.99V30H1786.12H1785.25V54H1786.12Z" fill="#F3F4F6" mask="url(#path-75-inside-30_1181_29476)"/>
<mask id="path-77-inside-31_1181_29476" fill="white">
<path d="M1874.12 30H1962.12V54H1874.12V30Z"/>
</mask>
<path d="M1874.12 30H1962.12V54H1874.12V30Z" fill="white"/>
<path d="M1874.12 30V29.1293H1873.25V30H1874.12ZM1874.12 30V30.8707H1962.12V30V29.1293H1874.12V30ZM1874.12 54H1874.99V30H1874.12H1873.25V54H1874.12Z" fill="#F3F4F6" mask="url(#path-77-inside-31_1181_29476)"/>
<mask id="path-79-inside-32_1181_29476" fill="white">
<path d="M1962.12 30H2050.12V54H1962.12V30Z"/>
</mask>
<path d="M1962.12 30H2050.12V54H1962.12V30Z" fill="white"/>
<path d="M1962.12 30V29.1293H1961.25V30H1962.12ZM1962.12 30V30.8707H2050.12V30V29.1293H1962.12V30ZM1962.12 54H1962.99V30H1962.12H1961.25V54H1962.12Z" fill="#F3F4F6" mask="url(#path-79-inside-32_1181_29476)"/>
</g>
<g clip-path="url(#clip3_1181_29476)">
<mask id="path-81-inside-33_1181_29476" fill="white">
<path d="M26.1172 54H114.117V78H26.1172V54Z"/>
</mask>
<path d="M26.1172 54H114.117V78H26.1172V54Z" fill="white"/>
<path d="M26.1172 54V53.1293H25.2465V54H26.1172ZM26.1172 54V54.8707H114.117V54V53.1293H26.1172V54ZM26.1172 78H26.9879V54H26.1172H25.2465V78H26.1172Z" fill="#F3F4F6" mask="url(#path-81-inside-33_1181_29476)"/>
<mask id="path-83-inside-34_1181_29476" fill="white">
<path d="M114.117 54H202.117V78H114.117V54Z"/>
</mask>
<path d="M114.117 54H202.117V78H114.117V54Z" fill="white"/>
<path d="M114.117 54V53.1293H113.247V54H114.117ZM114.117 54V54.8707H202.117V54V53.1293H114.117V54ZM114.117 78H114.988V54H114.117H113.247V78H114.117Z" fill="#F3F4F6" mask="url(#path-83-inside-34_1181_29476)"/>
<mask id="path-85-inside-35_1181_29476" fill="white">
<path d="M202.117 54H290.117V78H202.117V54Z"/>
</mask>
<path d="M202.117 54H290.117V78H202.117V54Z" fill="white"/>
<path d="M202.117 54V53.1293H201.247V54H202.117ZM202.117 54V54.8707H290.117V54V53.1293H202.117V54ZM202.117 78H202.988V54H202.117H201.247V78H202.117Z" fill="#F3F4F6" mask="url(#path-85-inside-35_1181_29476)"/>
<mask id="path-87-inside-36_1181_29476" fill="white">
<path d="M290.117 54H378.117V78H290.117V54Z"/>
</mask>
<path d="M290.117 54H378.117V78H290.117V54Z" fill="white"/>
<path d="M290.117 54V53.1293H289.247V54H290.117ZM290.117 54V54.8707H378.117V54V53.1293H290.117V54ZM290.117 78H290.988V54H290.117H289.247V78H290.117Z" fill="#F3F4F6" mask="url(#path-87-inside-36_1181_29476)"/>
<mask id="path-89-inside-37_1181_29476" fill="white">
<path d="M378.117 54H466.117V78H378.117V54Z"/>
</mask>
<path d="M378.117 54H466.117V78H378.117V54Z" fill="white"/>
<path d="M378.117 54V53.1293H377.247V54H378.117ZM378.117 54V54.8707H466.117V54V53.1293H378.117V54ZM378.117 78H378.988V54H378.117H377.247V78H378.117Z" fill="#F3F4F6" mask="url(#path-89-inside-37_1181_29476)"/>
<mask id="path-91-inside-38_1181_29476" fill="white">
<path d="M466.117 54H554.117V78H466.117V54Z"/>
</mask>
<path d="M466.117 54H554.117V78H466.117V54Z" fill="white"/>
<path d="M466.117 54V53.1293H465.247V54H466.117ZM466.117 54V54.8707H554.117V54V53.1293H466.117V54ZM466.117 78H466.988V54H466.117H465.247V78H466.117Z" fill="#F3F4F6" mask="url(#path-91-inside-38_1181_29476)"/>
<mask id="path-93-inside-39_1181_29476" fill="white">
<path d="M554.117 54H1434.12V78H554.117V54Z"/>
</mask>
<path d="M554.117 54H1434.12V78H554.117V54Z" fill="white"/>
<path d="M554.117 54V53.13H553.247V54H554.117ZM554.117 54V54.87H1434.12V54V53.13H554.117V54ZM554.117 78H554.987V54H554.117H553.247V78H554.117Z" fill="#F3F4F6" mask="url(#path-93-inside-39_1181_29476)"/>
<mask id="path-95-inside-40_1181_29476" fill="white">
<path d="M1434.12 54H1522.12V78H1434.12V54Z"/>
</mask>
<path d="M1434.12 54H1522.12V78H1434.12V54Z" fill="white"/>
<path d="M1434.12 54V53.1293H1433.25V54H1434.12ZM1434.12 54V54.8707H1522.12V54V53.1293H1434.12V54ZM1434.12 78H1434.99V54H1434.12H1433.25V78H1434.12Z" fill="#F3F4F6" mask="url(#path-95-inside-40_1181_29476)"/>
<mask id="path-97-inside-41_1181_29476" fill="white">
<path d="M1522.12 54H1610.12V78H1522.12V54Z"/>
</mask>
<path d="M1522.12 54H1610.12V78H1522.12V54Z" fill="white"/>
<path d="M1522.12 54V53.1293H1521.25V54H1522.12ZM1522.12 54V54.8707H1610.12V54V53.1293H1522.12V54ZM1522.12 78H1522.99V54H1522.12H1521.25V78H1522.12Z" fill="#F3F4F6" mask="url(#path-97-inside-41_1181_29476)"/>
<mask id="path-99-inside-42_1181_29476" fill="white">
<path d="M1610.12 54H1698.12V78H1610.12V54Z"/>
</mask>
<path d="M1610.12 54H1698.12V78H1610.12V54Z" fill="white"/>
<path d="M1610.12 54V53.1293H1609.25V54H1610.12ZM1610.12 54V54.8707H1698.12V54V53.1293H1610.12V54ZM1610.12 78H1610.99V54H1610.12H1609.25V78H1610.12Z" fill="#F3F4F6" mask="url(#path-99-inside-42_1181_29476)"/>
<mask id="path-101-inside-43_1181_29476" fill="white">
<path d="M1698.12 54H1786.12V78H1698.12V54Z"/>
</mask>
<path d="M1698.12 54H1786.12V78H1698.12V54Z" fill="white"/>
<path d="M1698.12 54V53.1293H1697.25V54H1698.12ZM1698.12 54V54.8707H1786.12V54V53.1293H1698.12V54ZM1698.12 78H1698.99V54H1698.12H1697.25V78H1698.12Z" fill="#F3F4F6" mask="url(#path-101-inside-43_1181_29476)"/>
<mask id="path-103-inside-44_1181_29476" fill="white">
<path d="M1786.12 54H1874.12V78H1786.12V54Z"/>
</mask>
<path d="M1786.12 54H1874.12V78H1786.12V54Z" fill="white"/>
<path d="M1786.12 54V53.1293H1785.25V54H1786.12ZM1786.12 54V54.8707H1874.12V54V53.1293H1786.12V54ZM1786.12 78H1786.99V54H1786.12H1785.25V78H1786.12Z" fill="#F3F4F6" mask="url(#path-103-inside-44_1181_29476)"/>
<mask id="path-105-inside-45_1181_29476" fill="white">
<path d="M1874.12 54H1962.12V78H1874.12V54Z"/>
</mask>
<path d="M1874.12 54H1962.12V78H1874.12V54Z" fill="white"/>
<path d="M1874.12 54V53.1293H1873.25V54H1874.12ZM1874.12 54V54.8707H1962.12V54V53.1293H1874.12V54ZM1874.12 78H1874.99V54H1874.12H1873.25V78H1874.12Z" fill="#F3F4F6" mask="url(#path-105-inside-45_1181_29476)"/>
<mask id="path-107-inside-46_1181_29476" fill="white">
<path d="M1962.12 54H2050.12V78H1962.12V54Z"/>
</mask>
<path d="M1962.12 54H2050.12V78H1962.12V54Z" fill="white"/>
<path d="M1962.12 54V53.1293H1961.25V54H1962.12ZM1962.12 54V54.8707H2050.12V54V53.1293H1962.12V54ZM1962.12 78H1962.99V54H1962.12H1961.25V78H1962.12Z" fill="#F3F4F6" mask="url(#path-107-inside-46_1181_29476)"/>
</g>
</g>
</g>
<defs>
<linearGradient id="paint0_linear_1181_29476" x1="70.1172" y1="29.8009" x2="70.1172" y2="0.198242" gradientUnits="userSpaceOnUse">
<stop stop-color="#D0D0D0"/>
<stop offset="1" stop-color="white" stop-opacity="0"/>
</linearGradient>
<linearGradient id="paint1_linear_1181_29476" x1="158.117" y1="29.8009" x2="158.117" y2="0.198242" gradientUnits="userSpaceOnUse">
<stop stop-color="#D0D0D0"/>
<stop offset="1" stop-color="white" stop-opacity="0"/>
</linearGradient>
<linearGradient id="paint2_linear_1181_29476" x1="246.117" y1="29.8009" x2="246.117" y2="0.198242" gradientUnits="userSpaceOnUse">
<stop stop-color="#D0D0D0"/>
<stop offset="1" stop-color="white" stop-opacity="0"/>
</linearGradient>
<linearGradient id="paint3_linear_1181_29476" x1="334.117" y1="29.8009" x2="334.117" y2="0.198242" gradientUnits="userSpaceOnUse">
<stop stop-color="#D0D0D0"/>
<stop offset="1" stop-color="white" stop-opacity="0"/>
</linearGradient>
<linearGradient id="paint4_linear_1181_29476" x1="422.117" y1="29.8009" x2="422.117" y2="0.198242" gradientUnits="userSpaceOnUse">
<stop stop-color="#D0D0D0"/>
<stop offset="1" stop-color="white" stop-opacity="0"/>
</linearGradient>
<linearGradient id="paint5_linear_1181_29476" x1="510.117" y1="29.8009" x2="510.117" y2="0.198242" gradientUnits="userSpaceOnUse">
<stop stop-color="#D0D0D0"/>
<stop offset="1" stop-color="white" stop-opacity="0"/>
</linearGradient>
<linearGradient id="paint6_linear_1181_29476" x1="994.117" y1="30" x2="994.117" y2="0" gradientUnits="userSpaceOnUse">
<stop stop-color="#D0D0D0"/>
<stop offset="1" stop-color="white" stop-opacity="0"/>
</linearGradient>
<linearGradient id="paint7_linear_1181_29476" x1="1478.12" y1="29.8009" x2="1478.12" y2="0.198242" gradientUnits="userSpaceOnUse">
<stop stop-color="#D0D0D0"/>
<stop offset="1" stop-color="white" stop-opacity="0"/>
</linearGradient>
<linearGradient id="paint8_linear_1181_29476" x1="1566.12" y1="29.8009" x2="1566.12" y2="0.198242" gradientUnits="userSpaceOnUse">
<stop stop-color="#D0D0D0"/>
<stop offset="1" stop-color="white" stop-opacity="0"/>
</linearGradient>
<linearGradient id="paint9_linear_1181_29476" x1="1654.12" y1="29.8009" x2="1654.12" y2="0.198242" gradientUnits="userSpaceOnUse">
<stop stop-color="#D0D0D0"/>
<stop offset="1" stop-color="white" stop-opacity="0"/>
</linearGradient>
<linearGradient id="paint10_linear_1181_29476" x1="1742.12" y1="29.8009" x2="1742.12" y2="0.198242" gradientUnits="userSpaceOnUse">
<stop stop-color="#D0D0D0"/>
<stop offset="1" stop-color="white" stop-opacity="0"/>
</linearGradient>
<linearGradient id="paint11_linear_1181_29476" x1="1830.12" y1="29.8009" x2="1830.12" y2="0.198242" gradientUnits="userSpaceOnUse">
<stop stop-color="#D0D0D0"/>
<stop offset="1" stop-color="white" stop-opacity="0"/>
</linearGradient>
<linearGradient id="paint12_linear_1181_29476" x1="1918.12" y1="29.8009" x2="1918.12" y2="0.198242" gradientUnits="userSpaceOnUse">
<stop stop-color="#D0D0D0"/>
<stop offset="1" stop-color="white" stop-opacity="0"/>
</linearGradient>
<linearGradient id="paint13_linear_1181_29476" x1="2006.12" y1="29.8009" x2="2006.12" y2="0.198242" gradientUnits="userSpaceOnUse">
<stop stop-color="#D0D0D0"/>
<stop offset="1" stop-color="white" stop-opacity="0"/>
</linearGradient>
<linearGradient id="paint14_linear_1181_29476" x1="26.12" y1="42" x2="0" y2="42" gradientUnits="userSpaceOnUse">
<stop stop-color="#D0D0D0"/>
<stop offset="0.465" stop-color="#DDDDDD" stop-opacity="0.72"/>
<stop offset="1" stop-color="white" stop-opacity="0"/>
</linearGradient>
<linearGradient id="paint15_linear_1181_29476" x1="26.12" y1="66" x2="0" y2="66" gradientUnits="userSpaceOnUse">
<stop stop-color="#D0D0D0"/>
<stop offset="0.465" stop-color="#DDDDDD" stop-opacity="0.72"/>
<stop offset="1" stop-color="white" stop-opacity="0"/>
</linearGradient>
<clipPath id="clip0_1181_29476">
<rect width="2000" height="78" fill="white"/>
</clipPath>
<clipPath id="clip1_1181_29476">
<rect width="2200" height="48" fill="white" transform="translate(26.1172 30)"/>
</clipPath>
<clipPath id="clip2_1181_29476">
<rect width="2200" height="24" fill="white" transform="translate(26.1172 30)"/>
</clipPath>
<clipPath id="clip3_1181_29476">
<rect width="2200" height="24" fill="white" transform="translate(26.1172 54)"/>
</clipPath>
</defs>
</svg>
