<svg width="2000" height="446" viewBox="0 0 2000 446" fill="none" xmlns="http://www.w3.org/2000/svg">
<g clip-path="url(#clip0_1181_30170)">
<mask id="path-1-inside-1_1181_30170" fill="white">
<path d="M0 0H26.12V446H0V0Z"/>
</mask>
<path d="M0 0H26.12V446H0V0Z" fill="#F3F4F6"/>
<path d="M0 0V0.870667H26.12V0V-0.870667H0V0Z" fill="url(#paint0_linear_1181_30170)" mask="url(#path-1-inside-1_1181_30170)"/>
<path d="M13.0596 443.099C12.5482 443.099 12.0936 443.012 11.6959 442.837C11.3006 442.661 10.9881 442.418 10.7584 442.105C10.5288 441.793 10.4069 441.432 10.3927 441.022H11.7279C11.7397 441.219 11.8048 441.39 11.9232 441.537C12.0416 441.681 12.199 441.794 12.3955 441.874C12.592 441.955 12.8122 441.995 13.056 441.995C13.3164 441.995 13.5472 441.95 13.7485 441.86C13.9497 441.768 14.1071 441.64 14.2208 441.477C14.3344 441.313 14.39 441.125 14.3877 440.912C14.39 440.692 14.3332 440.498 14.2172 440.33C14.1012 440.161 13.9331 440.03 13.713 439.935C13.4952 439.841 13.2324 439.793 12.9246 439.793H12.2819V438.778H12.9246C13.1779 438.778 13.3993 438.734 13.5887 438.646C13.7804 438.559 13.9308 438.436 14.0397 438.277C14.1486 438.116 14.2018 437.93 14.1995 437.719C14.2018 437.513 14.1557 437.335 14.061 437.183C13.9686 437.029 13.8373 436.91 13.6668 436.825C13.4987 436.739 13.301 436.697 13.0738 436.697C12.8512 436.697 12.6453 436.737 12.4559 436.817C12.2665 436.898 12.1138 437.013 11.9978 437.162C11.8818 437.309 11.8202 437.484 11.8131 437.688H10.5454C10.5548 437.28 10.672 436.923 10.8969 436.615C11.1242 436.305 11.4272 436.063 11.806 435.891C12.1848 435.715 12.6097 435.628 13.0809 435.628C13.5662 435.628 13.9876 435.719 14.3451 435.901C14.7049 436.081 14.9831 436.324 15.1796 436.629C15.3761 436.935 15.4743 437.272 15.4743 437.641C15.4767 438.051 15.356 438.394 15.1121 438.671C14.8706 438.948 14.5534 439.129 14.1604 439.214V439.271C14.6718 439.342 15.0636 439.532 15.3358 439.839C15.6105 440.145 15.7466 440.525 15.7442 440.979C15.7442 441.387 15.6282 441.751 15.3962 442.073C15.1666 442.393 14.8493 442.644 14.4445 442.826C14.042 443.008 13.5804 443.099 13.0596 443.099Z" fill="#9DA4AE"/>
<g clip-path="url(#clip1_1181_30170)">
<mask id="path-4-inside-2_1181_30170" fill="white">
<path d="M26.1172 0H114.117V445.845H26.1172V0Z"/>
</mask>
<path d="M26.1172 0H114.117V445.845H26.1172V0Z" fill="white"/>
<path d="M26.1172 0V-0.870667H25.2465V0H26.1172ZM26.1172 0V0.870667H114.117V0V-0.870667H26.1172V0ZM26.1172 445.845H26.9879V0H26.1172H25.2465V445.845H26.1172Z" fill="#F3F4F6" mask="url(#path-4-inside-2_1181_30170)"/>
<mask id="path-6-inside-3_1181_30170" fill="white">
<path d="M114.117 0H202.117V445.845H114.117V0Z"/>
</mask>
<path d="M114.117 0H202.117V445.845H114.117V0Z" fill="white"/>
<path d="M114.117 0V-0.870667H113.247V0H114.117ZM114.117 0V0.870667H202.117V0V-0.870667H114.117V0ZM114.117 445.845H114.988V0H114.117H113.247V445.845H114.117Z" fill="#F3F4F6" mask="url(#path-6-inside-3_1181_30170)"/>
<mask id="path-8-inside-4_1181_30170" fill="white">
<path d="M202.117 0H290.117V445.845H202.117V0Z"/>
</mask>
<path d="M202.117 0H290.117V445.845H202.117V0Z" fill="white"/>
<path d="M202.117 0V-0.870667H201.247V0H202.117ZM202.117 0V0.870667H290.117V0V-0.870667H202.117V0ZM202.117 445.845H202.988V0H202.117H201.247V445.845H202.117Z" fill="#F3F4F6" mask="url(#path-8-inside-4_1181_30170)"/>
<mask id="path-10-inside-5_1181_30170" fill="white">
<path d="M290.117 0H378.117V445.845H290.117V0Z"/>
</mask>
<path d="M290.117 0H378.117V445.845H290.117V0Z" fill="white"/>
<path d="M290.117 0V-0.870667H289.247V0H290.117ZM290.117 0V0.870667H378.117V0V-0.870667H290.117V0ZM290.117 445.845H290.988V0H290.117H289.247V445.845H290.117Z" fill="#F3F4F6" mask="url(#path-10-inside-5_1181_30170)"/>
<mask id="path-12-inside-6_1181_30170" fill="white">
<path d="M378.117 0H466.117V445.845H378.117V0Z"/>
</mask>
<path d="M378.117 0H466.117V445.845H378.117V0Z" fill="white"/>
<path d="M378.117 0V-0.870667H377.247V0H378.117ZM378.117 0V0.870667H466.117V0V-0.870667H378.117V0ZM378.117 445.845H378.988V0H378.117H377.247V445.845H378.117Z" fill="#F3F4F6" mask="url(#path-12-inside-6_1181_30170)"/>
<mask id="path-14-inside-7_1181_30170" fill="white">
<path d="M466.117 0H554.117V445.845H466.117V0Z"/>
</mask>
<path d="M466.117 0H554.117V445.845H466.117V0Z" fill="white"/>
<path d="M466.117 0V-0.870667H465.247V0H466.117ZM466.117 0V0.870667H554.117V0V-0.870667H466.117V0ZM466.117 445.845H466.988V0H466.117H465.247V445.845H466.117Z" fill="#F3F4F6" mask="url(#path-14-inside-7_1181_30170)"/>
<mask id="path-16-inside-8_1181_30170" fill="white">
<path d="M554.117 0H1434.12V445.845H554.117V0Z"/>
</mask>
<path d="M554.117 0H1434.12V445.845H554.117V0Z" fill="white"/>
<path d="M554.117 0V-0.87H553.247V0H554.117ZM554.117 0V0.87H1434.12V0V-0.87H554.117V0ZM554.117 445.845H554.987V0H554.117H553.247V445.845H554.117Z" fill="#F3F4F6" mask="url(#path-16-inside-8_1181_30170)"/>
<mask id="path-18-inside-9_1181_30170" fill="white">
<path d="M1434.12 0H1522.12V445.845H1434.12V0Z"/>
</mask>
<path d="M1434.12 0H1522.12V445.845H1434.12V0Z" fill="white"/>
<path d="M1434.12 0V-0.870667H1433.25V0H1434.12ZM1434.12 0V0.870667H1522.12V0V-0.870667H1434.12V0ZM1434.12 445.845H1434.99V0H1434.12H1433.25V445.845H1434.12Z" fill="#F3F4F6" mask="url(#path-18-inside-9_1181_30170)"/>
<mask id="path-20-inside-10_1181_30170" fill="white">
<path d="M1522.12 0H1610.12V445.845H1522.12V0Z"/>
</mask>
<path d="M1522.12 0H1610.12V445.845H1522.12V0Z" fill="white"/>
<path d="M1522.12 0V-0.870667H1521.25V0H1522.12ZM1522.12 0V0.870667H1610.12V0V-0.870667H1522.12V0ZM1522.12 445.845H1522.99V0H1522.12H1521.25V445.845H1522.12Z" fill="#F3F4F6" mask="url(#path-20-inside-10_1181_30170)"/>
<mask id="path-22-inside-11_1181_30170" fill="white">
<path d="M1610.12 0H1698.12V445.845H1610.12V0Z"/>
</mask>
<path d="M1610.12 0H1698.12V445.845H1610.12V0Z" fill="white"/>
<path d="M1610.12 0V-0.870667H1609.25V0H1610.12ZM1610.12 0V0.870667H1698.12V0V-0.870667H1610.12V0ZM1610.12 445.845H1610.99V0H1610.12H1609.25V445.845H1610.12Z" fill="#F3F4F6" mask="url(#path-22-inside-11_1181_30170)"/>
<mask id="path-24-inside-12_1181_30170" fill="white">
<path d="M1698.12 0H1786.12V445.845H1698.12V0Z"/>
</mask>
<path d="M1698.12 0H1786.12V445.845H1698.12V0Z" fill="white"/>
<path d="M1698.12 0V-0.870667H1697.25V0H1698.12ZM1698.12 0V0.870667H1786.12V0V-0.870667H1698.12V0ZM1698.12 445.845H1698.99V0H1698.12H1697.25V445.845H1698.12Z" fill="#F3F4F6" mask="url(#path-24-inside-12_1181_30170)"/>
<mask id="path-26-inside-13_1181_30170" fill="white">
<path d="M1786.12 0H1874.12V445.845H1786.12V0Z"/>
</mask>
<path d="M1786.12 0H1874.12V445.845H1786.12V0Z" fill="white"/>
<path d="M1786.12 0V-0.870667H1785.25V0H1786.12ZM1786.12 0V0.870667H1874.12V0V-0.870667H1786.12V0ZM1786.12 445.845H1786.99V0H1786.12H1785.25V445.845H1786.12Z" fill="#F3F4F6" mask="url(#path-26-inside-13_1181_30170)"/>
<mask id="path-28-inside-14_1181_30170" fill="white">
<path d="M1874.12 0H1962.12V445.845H1874.12V0Z"/>
</mask>
<path d="M1874.12 0H1962.12V445.845H1874.12V0Z" fill="white"/>
<path d="M1874.12 0V-0.870667H1873.25V0H1874.12ZM1874.12 0V0.870667H1962.12V0V-0.870667H1874.12V0ZM1874.12 445.845H1874.99V0H1874.12H1873.25V445.845H1874.12Z" fill="#F3F4F6" mask="url(#path-28-inside-14_1181_30170)"/>
<mask id="path-30-inside-15_1181_30170" fill="white">
<path d="M1962.12 0H2050.12V445.845H1962.12V0Z"/>
</mask>
<path d="M1962.12 0H2050.12V445.845H1962.12V0Z" fill="white"/>
<path d="M1962.12 0V-0.870667H1961.25V0H1962.12ZM1962.12 0V0.870667H2050.12V0V-0.870667H1962.12V0ZM1962.12 445.845H1962.99V0H1962.12H1961.25V445.845H1962.12Z" fill="#F3F4F6" mask="url(#path-30-inside-15_1181_30170)"/>
</g>
</g>
<defs>
<linearGradient id="paint0_linear_1181_30170" x1="26.12" y1="223" x2="0" y2="223" gradientUnits="userSpaceOnUse">
<stop stop-color="#D0D0D0"/>
<stop offset="0.465" stop-color="#DDDDDD" stop-opacity="0.72"/>
<stop offset="1" stop-color="white" stop-opacity="0"/>
</linearGradient>
<clipPath id="clip0_1181_30170">
<rect width="2000" height="446" fill="white"/>
</clipPath>
<clipPath id="clip1_1181_30170">
<rect width="2200" height="445.845" fill="white" transform="translate(26.1172)"/>
</clipPath>
</defs>
</svg>
